  0
SECTION
  2
HEADER
  9
$ACADVER
  1
AC1021
  9
$ACADMAINTVER
 70
     1
  9
$DWGCODEPAGE
  3
ANSI_1252
  9
$LASTSAVEDBY
  1
Amirhossein
  9
$INSBASE
 10
0.0
 20
0.0
 30
0.0
  9
$EXTMIN
 10
175.5127433709904
 20
14.92697658606244
 30
0.0
  9
$EXTMAX
 10
1123.350277413588
 20
641.3478877474797
 30
0.0
  9
$LIMMIN
 10
0.0
 20
0.0
  9
$LIMMAX
 10
12.0
 20
9.0
  9
$ORTHOMODE
 70
     0
  9
$REGENMODE
 70
     1
  9
$FILLMODE
 70
     1
  9
$QTEXTMODE
 70
     0
  9
$MIRRTEXT
 70
     0
  9
$LTSCALE
 40
30.0
  9
$ATTMODE
 70
     1
  9
$TEXTSIZE
 40
0.2
  9
$TRACEWID
 40
0.05
  9
$TEXTSTYLE
  7
Standard
  9
$CLAYER
  8
dim
  9
$CELTYPE
  6
ByLayer
  9
$CECOLOR
 62
   256
  9
$CELTSCALE
 40
1.0
  9
$DISPSILH
 70
     0
  9
$DIMSCALE
 40
1.0
  9
$DIMASZ
 40
10.0
  9
$DIMEXO
 40
5.0
  9
$DIMDLI
 40
5.0
  9
$DIMRND
 40
0.0
  9
$DIMDLE
 40
0.0
  9
$DIMEXE
 40
5.0
  9
$DIMTP
 40
0.0
  9
$DIMTM
 40
0.0
  9
$DIMTXT
 40
10.0
  9
$DIMCEN
 40
10.0
  9
$DIMTSZ
 40
0.0
  9
$DIMTOL
 70
     0
  9
$DIMLIM
 70
     0
  9
$DIMTIH
 70
     0
  9
$DIMTOH
 70
     0
  9
$DIMSE1
 70
     0
  9
$DIMSE2
 70
     0
  9
$DIMTAD
 70
     0
  9
$DIMZIN
 70
    12
  9
$DIMBLK
  1

  9
$DIMASO
 70
     1
  9
$DIMSHO
 70
     1
  9
$DIMPOST
  1

  9
$DIMAPOST
  1

  9
$DIMALT
 70
     0
  9
$DIMALTD
 70
     2
  9
$DIMALTF
 40
25.4
  9
$DIMLFAC
 40
1.0
  9
$DIMTOFL
 70
     0
  9
$DIMTVP
 40
0.0
  9
$DIMTIX
 70
     0
  9
$DIMSOXD
 70
     0
  9
$DIMSAH
 70
     0
  9
$DIMBLK1
  1

  9
$DIMBLK2
  1

  9
$DIMSTYLE
  2
Standard
  9
$DIMCLRD
 70
     0
  9
$DIMCLRE
 70
     0
  9
$DIMCLRT
 70
     0
  9
$DIMTFAC
 40
1.0
  9
$DIMGAP
 40
5.0
  9
$DIMJUST
 70
     0
  9
$DIMSD1
 70
     0
  9
$DIMSD2
 70
     0
  9
$DIMTOLJ
 70
     1
  9
$DIMTZIN
 70
     0
  9
$DIMALTZ
 70
     0
  9
$DIMALTTZ
 70
     0
  9
$DIMUPT
 70
     0
  9
$DIMDEC
 70
     4
  9
$DIMTDEC
 70
     4
  9
$DIMALTU
 70
     2
  9
$DIMALTTD
 70
     2
  9
$DIMTXSTY
  7
Standard
  9
$DIMAUNIT
 70
     0
  9
$DIMADEC
 70
     0
  9
$DIMALTRND
 40
0.0
  9
$DIMAZIN
 70
     0
  9
$DIMDSEP
 70
    46
  9
$DIMATFIT
 70
     3
  9
$DIMFRAC
 70
     0
  9
$DIMLDRBLK
  1

  9
$DIMLUNIT
 70
     2
  9
$DIMLWD
 70
    -2
  9
$DIMLWE
 70
    -2
  9
$DIMTMOVE
 70
     0
  9
$DIMFXL
 40
1.0
  9
$DIMFXLON
 70
     0
  9
$DIMJOGANG
 40
0.7853981633974483
  9
$DIMTFILL
 70
     0
  9
$DIMTFILLCLR
 70
     0
  9
$DIMARCSYM
 70
     0
  9
$DIMLTYPE
  6

  9
$DIMLTEX1
  6

  9
$DIMLTEX2
  6

  9
$LUNITS
 70
     2
  9
$LUPREC
 70
     4
  9
$SKETCHINC
 40
0.1
  9
$FILLETRAD
 40
3.0
  9
$AUNITS
 70
     0
  9
$AUPREC
 70
     0
  9
$MENU
  1
.
  9
$ELEVATION
 40
0.0
  9
$PELEVATION
 40
0.0
  9
$THICKNESS
 40
0.0
  9
$LIMCHECK
 70
     0
  9
$CHAMFERA
 40
0.0
  9
$CHAMFERB
 40
0.0
  9
$CHAMFERC
 40
0.0
  9
$CHAMFERD
 40
0.0
  9
$SKPOLY
 70
     0
  9
$TDCREATE
 40
2458421.563695394
  9
$TDUCREATE
 40
2458421.522028727
  9
$TDUPDATE
 40
2458421.591234618
  9
$TDUUPDATE
 40
2458421.549567952
  9
$TDINDWG
 40
0.0275395833
  9
$TDUSRTIMER
 40
0.0275395833
  9
$USRTIMER
 70
     1
  9
$ANGBASE
 50
0.0
  9
$ANGDIR
 70
     0
  9
$PDMODE
 70
     0
  9
$PDSIZE
 40
0.0
  9
$PLINEWID
 40
0.0
  9
$SPLFRAME
 70
     0
  9
$SPLINETYPE
 70
     6
  9
$SPLINESEGS
 70
     8
  9
$HANDSEED
  5
65F
  9
$SURFTAB1
 70
     6
  9
$SURFTAB2
 70
     6
  9
$SURFTYPE
 70
     6
  9
$SURFU
 70
     6
  9
$SURFV
 70
     6
  9
$UCSBASE
  2

  9
$UCSNAME
  2

  9
$UCSORG
 10
0.0
 20
0.0
 30
0.0
  9
$UCSXDIR
 10
1.0
 20
0.0
 30
0.0
  9
$UCSYDIR
 10
0.0
 20
1.0
 30
0.0
  9
$UCSORTHOREF
  2

  9
$UCSORTHOVIEW
 70
     0
  9
$UCSORGTOP
 10
0.0
 20
0.0
 30
0.0
  9
$UCSORGBOTTOM
 10
0.0
 20
0.0
 30
0.0
  9
$UCSORGLEFT
 10
0.0
 20
0.0
 30
0.0
  9
$UCSORGRIGHT
 10
0.0
 20
0.0
 30
0.0
  9
$UCSORGFRONT
 10
0.0
 20
0.0
 30
0.0
  9
$UCSORGBACK
 10
0.0
 20
0.0
 30
0.0
  9
$PUCSBASE
  2

  9
$PUCSNAME
  2

  9
$PUCSORG
 10
0.0
 20
0.0
 30
0.0
  9
$PUCSXDIR
 10
1.0
 20
0.0
 30
0.0
  9
$PUCSYDIR
 10
0.0
 20
1.0
 30
0.0
  9
$PUCSORTHOREF
  2

  9
$PUCSORTHOVIEW
 70
     0
  9
$PUCSORGTOP
 10
0.0
 20
0.0
 30
0.0
  9
$PUCSORGBOTTOM
 10
0.0
 20
0.0
 30
0.0
  9
$PUCSORGLEFT
 10
0.0
 20
0.0
 30
0.0
  9
$PUCSORGRIGHT
 10
0.0
 20
0.0
 30
0.0
  9
$PUCSORGFRONT
 10
0.0
 20
0.0
 30
0.0
  9
$PUCSORGBACK
 10
0.0
 20
0.0
 30
0.0
  9
$USERI1
 70
     0
  9
$USERI2
 70
     0
  9
$USERI3
 70
     0
  9
$USERI4
 70
     0
  9
$USERI5
 70
     0
  9
$USERR1
 40
0.0
  9
$USERR2
 40
0.0
  9
$USERR3
 40
0.0
  9
$USERR4
 40
0.0
  9
$USERR5
 40
0.0
  9
$WORLDVIEW
 70
     1
  9
$SHADEDGE
 70
     3
  9
$SHADEDIF
 70
    70
  9
$TILEMODE
 70
     1
  9
$MAXACTVP
 70
    64
  9
$PINSBASE
 10
0.0
 20
0.0
 30
0.0
  9
$PLIMCHECK
 70
     0
  9
$PEXTMIN
 10
0.0
 20
0.0
 30
0.0
  9
$PEXTMAX
 10
0.0
 20
0.0
 30
0.0
  9
$PLIMMIN
 10
0.0
 20
0.0
  9
$PLIMMAX
 10
12.0
 20
9.0
  9
$UNITMODE
 70
     0
  9
$VISRETAIN
 70
     1
  9
$PLINEGEN
 70
     0
  9
$PSLTSCALE
 70
     1
  9
$TREEDEPTH
 70
  3020
  9
$CMLSTYLE
  2
Standard
  9
$CMLJUST
 70
     0
  9
$CMLSCALE
 40
1.0
  9
$PROXYGRAPHICS
 70
     1
  9
$MEASUREMENT
 70
     0
  9
$CELWEIGHT
370
    -1
  9
$ENDCAPS
280
     0
  9
$JOINSTYLE
280
     0
  9
$LWDISPLAY
290
     0
  9
$INSUNITS
 70
     1
  9
$HYPERLINKBASE
  1

  9
$STYLESHEET
  1

  9
$XEDIT
290
     1
  9
$CEPSNTYPE
380
     0
  9
$PSTYLEMODE
290
     1
  9
$FINGERPRINTGUID
  2
{5F606EA4-C39F-4AD7-AE4B-B6E72E6507CE}
  9
$VERSIONGUID
  2
{E48C65F5-4949-4446-AC57-6784106547FC}
  9
$EXTNAMES
290
     1
  9
$PSVPSCALE
 40
0.0
  9
$OLESTARTUP
290
     0
  9
$SORTENTS
280
   127
  9
$INDEXCTL
280
     0
  9
$HIDETEXT
280
     1
  9
$XCLIPFRAME
290
     0
  9
$HALOGAP
280
     0
  9
$OBSCOLOR
 70
   257
  9
$OBSLTYPE
280
     0
  9
$INTERSECTIONDISPLAY
280
     0
  9
$INTERSECTIONCOLOR
 70
   257
  9
$DIMASSOC
280
     2
  9
$PROJECTNAME
  1

  9
$CAMERADISPLAY
290
     0
  9
$LENSLENGTH
 40
50.0
  9
$CAMERAHEIGHT
 40
0.0
  9
$STEPSPERSEC
 40
2.0
  9
$STEPSIZE
 40
6.0
  9
$3DDWFPREC
 40
2.0
  9
$PSOLWIDTH
 40
0.25
  9
$PSOLHEIGHT
 40
4.0
  9
$LOFTANG1
 40
1.570796326794896
  9
$LOFTANG2
 40
1.570796326794896
  9
$LOFTMAG1
 40
0.0
  9
$LOFTMAG2
 40
0.0
  9
$LOFTPARAM
 70
     7
  9
$LOFTNORMALS
280
     1
  9
$LATITUDE
 40
37.795
  9
$LONGITUDE
 40
-122.394
  9
$NORTHDIRECTION
 40
0.0
  9
$TIMEZONE
 70
 -8000
  9
$LIGHTGLYPHDISPLAY
280
     1
  9
$TILEMODELIGHTSYNCH
280
     1
  9
$CMATERIAL
347
96
  9
$SOLIDHIST
280
     1
  9
$SHOWHIST
280
     1
  9
$DWFFRAME
280
     2
  9
$DGNFRAME
280
     0
  9
$REALWORLDSCALE
290
     1
  9
$INTERFERECOLOR
 62
     1
  9
$INTERFEREOBJVS
345
A3
  9
$INTERFEREVPVS
346
A0
  9
$CSHADOW
280
     0
  9
$SHADOWPLANELOCATION
 40
0.0
  0
ENDSEC
  0
SECTION
  2
CLASSES
  0
CLASS
  1
ACDBDICTIONARYWDFLT
  2
AcDbDictionaryWithDefault
  3
ObjectDBX Classes
 90
        0
 91
        1
280
     0
281
     0
  0
CLASS
  1
DICTIONARYVAR
  2
AcDbDictionaryVar
  3
ObjectDBX Classes
 90
        0
 91
        3
280
     0
281
     0
  0
CLASS
  1
TABLESTYLE
  2
AcDbTableStyle
  3
ObjectDBX Classes
 90
     4095
 91
        1
280
     0
281
     0
  0
CLASS
  1
MATERIAL
  2
AcDbMaterial
  3
ObjectDBX Classes
 90
     1024
 91
        3
280
     0
281
     0
  0
CLASS
  1
VISUALSTYLE
  2
AcDbVisualStyle
  3
ObjectDBX Classes
 90
     4095
 91
       16
280
     0
281
     0
  0
CLASS
  1
DIMASSOC
  2
AcDbDimAssoc
  3
"AcDbDimAssoc|Product Desc:     AcDim ARX App For Dimension|Company:          Autodesk, Inc.|WEB Address:      www.autodesk.com"
 90
        0
 91
       25
280
     0
281
     0
  0
CLASS
  1
SORTENTSTABLE
  2
AcDbSortentsTable
  3
ObjectDBX Classes
 90
        0
 91
        1
280
     0
281
     0
  0
ENDSEC
  0
SECTION
  2
TABLES
  0
TABLE
  2
VPORT
  5
8
330
0
100
AcDbSymbolTable
 70
     1
  0
VPORT
  5
94
330
8
100
AcDbSymbolTableRecord
100
AcDbViewportTableRecord
  2
*Active
 70
     0
 10
0.0
 20
0.0
 11
1.0
 21
1.0
 12
667.6852832821676
 22
270.7799928082992
 13
0.0
 23
0.0
 14
0.5
 24
0.5
 15
0.5
 25
0.5
 16
0.0
 26
0.0
 36
1.0
 17
0.0
 27
0.0
 37
0.0
 40
568.8654352095584
 41
2.306349206349206
 42
50.0
 43
0.0
 44
0.0
 50
0.0
 51
0.0
 71
     0
 72
  1000
 73
     1
 74
     3
 75
     0
 76
     1
 77
     0
 78
     0
281
     0
 65
     1
110
0.0
120
0.0
130
0.0
111
1.0
121
0.0
131
0.0
112
0.0
122
1.0
132
0.0
 79
     0
146
0.0
348
9F
 60
     2
 61
     5
292
     1
282
     1
141
0.0
142
0.0
 63
   250
421
  3355443
  0
ENDTAB
  0
TABLE
  2
LTYPE
  5
5
330
0
100
AcDbSymbolTable
 70
     3
  0
LTYPE
  5
14
330
5
100
AcDbSymbolTableRecord
100
AcDbLinetypeTableRecord
  2
ByBlock
 70
     0
  3

 72
    65
 73
     0
 40
0.0
  0
LTYPE
  5
15
330
5
100
AcDbSymbolTableRecord
100
AcDbLinetypeTableRecord
  2
ByLayer
 70
     0
  3

 72
    65
 73
     0
 40
0.0
  0
LTYPE
  5
16
330
5
100
AcDbSymbolTableRecord
100
AcDbLinetypeTableRecord
  2
Continuous
 70
     0
  3
Solid line
 72
    65
 73
     0
 40
0.0
  0
LTYPE
  5
131
330
5
100
AcDbSymbolTableRecord
100
AcDbLinetypeTableRecord
  2
CENTER
 70
     0
  3
Center ____ _ ____ _ ____ _ ____ _ ____ _ ____
 72
    65
 73
     4
 40
2.0
 49
1.25
 74
     0
 49
-0.25
 74
     0
 49
0.25
 74
     0
 49
-0.25
 74
     0
  0
ENDTAB
  0
TABLE
  2
LAYER
  5
2
102
{ACAD_XDICTIONARY
360
132
102
}
330
0
100
AcDbSymbolTable
 70
     4
  0
LAYER
  5
10
330
2
100
AcDbSymbolTableRecord
100
AcDbLayerTableRecord
  2
0
 70
     0
 62
     7
  6
Continuous
370
    -3
390
F
347
98
  0
LAYER
  5
12D
330
2
100
AcDbSymbolTableRecord
100
AcDbLayerTableRecord
  2
pivot
 70
     0
 62
     1
  6
CENTER
370
    -3
390
F
347
98
1001
AcAecLayerStandard
1000

1000

  0
LAYER
  5
145
330
2
100
AcDbSymbolTableRecord
100
AcDbLayerTableRecord
  2
dim
 70
     0
 62
     3
  6
Continuous
370
    -3
390
F
347
98
1001
AcAecLayerStandard
1000

1000

  0
LAYER
  5
149
330
2
100
AcDbSymbolTableRecord
100
AcDbLayerTableRecord
  2
Defpoints
 70
     0
 62
     7
  6
Continuous
290
     0
370
    -3
390
F
347
98
  0
ENDTAB
  0
TABLE
  2
STYLE
  5
3
330
0
100
AcDbSymbolTable
 70
     2
  0
STYLE
  5
11
330
3
100
AcDbSymbolTableRecord
100
AcDbTextStyleTableRecord
  2
Standard
 70
     0
 40
0.0
 41
1.0
 50
0.0
 71
     0
 42
0.2
  3
txt
  4

  0
STYLE
  5
130
330
3
100
AcDbSymbolTableRecord
100
AcDbTextStyleTableRecord
  2

 70
     1
 40
0.0
 41
1.0
 50
0.0
 71
     0
 42
0.2
  3
ltypeshp.shx
  4

  0
ENDTAB
  0
TABLE
  2
VIEW
  5
6
330
0
100
AcDbSymbolTable
 70
     0
  0
ENDTAB
  0
TABLE
  2
UCS
  5
7
330
0
100
AcDbSymbolTable
 70
     0
  0
ENDTAB
  0
TABLE
  2
APPID
  5
9
330
0
100
AcDbSymbolTable
 70
     3
  0
APPID
  5
12
330
9
100
AcDbSymbolTableRecord
100
AcDbRegAppTableRecord
  2
ACAD
 70
     0
  0
APPID
  5
BB
330
9
100
AcDbSymbolTableRecord
100
AcDbRegAppTableRecord
  2
ACAD_EXEMPT_FROM_CAD_STANDARDS
 70
     0
  0
APPID
  5
12E
330
9
100
AcDbSymbolTableRecord
100
AcDbRegAppTableRecord
  2
AcAecLayerStandard
 70
     0
  0
ENDTAB
  0
TABLE
  2
DIMSTYLE
  5
A
330
0
100
AcDbSymbolTable
 70
     2
100
AcDbDimStyleTable
 71
     1
340
27
  0
DIMSTYLE
105
27
102
{ACAD_REACTORS
330
148
330
1C7
330
1EB
330
205
330
221
330
237
330
251
330
297
330
2B1
330
21F
330
395
330
3AF
330
404
330
41E
330
45F
330
48D
330
4D6
330
4FA
330
514
330
538
330
552
330
580
102
}
330
A
100
AcDbSymbolTableRecord
100
AcDbDimStyleTableRecord
  2
Standard
 70
     0
 41
10.0
 42
5.0
 43
5.0
 44
5.0
 73
     0
 74
     0
 78
    12
140
10.0
141
10.0
147
5.0
340
11
  0
ENDTAB
  0
TABLE
  2
BLOCK_RECORD
  5
1
330
0
100
AcDbSymbolTable
 70
    27
  0
BLOCK_RECORD
  5
1F
102
{ACAD_XDICTIONARY
360
4D4
102
}
330
1
100
AcDbSymbolTableRecord
100
AcDbBlockTableRecord
  2
*Model_Space
340
22
 70
     0
280
     1
281
     0
  0
BLOCK_RECORD
  5
58
330
1
100
AcDbSymbolTableRecord
100
AcDbBlockTableRecord
  2
*Paper_Space
340
59
 70
     0
280
     1
281
     0
  0
BLOCK_RECORD
  5
5D
330
1
100
AcDbSymbolTableRecord
100
AcDbBlockTableRecord
  2
*Paper_Space0
340
5E
 70
     0
280
     1
281
     0
  0
BLOCK_RECORD
  5
14A
330
1
100
AcDbSymbolTableRecord
100
AcDbBlockTableRecord
  2
*D2
340
0
 70
     0
280
     1
281
     0
  0
BLOCK_RECORD
  5
1C8
330
1
100
AcDbSymbolTableRecord
100
AcDbBlockTableRecord
  2
*D3
340
0
 70
     0
280
     1
281
     0
  0
BLOCK_RECORD
  5
1EC
330
1
100
AcDbSymbolTableRecord
100
AcDbBlockTableRecord
  2
*D4
340
0
 70
     0
280
     1
281
     0
  0
BLOCK_RECORD
  5
206
330
1
100
AcDbSymbolTableRecord
100
AcDbBlockTableRecord
  2
*D5
340
0
 70
     0
280
     1
281
     0
  0
BLOCK_RECORD
  5
222
330
1
100
AcDbSymbolTableRecord
100
AcDbBlockTableRecord
  2
*D6
340
0
 70
     0
280
     1
281
     0
  0
BLOCK_RECORD
  5
238
330
1
100
AcDbSymbolTableRecord
100
AcDbBlockTableRecord
  2
*D7
340
0
 70
     0
280
     1
281
     0
  0
BLOCK_RECORD
  5
252
330
1
100
AcDbSymbolTableRecord
100
AcDbBlockTableRecord
  2
*D8
340
0
 70
     0
280
     1
281
     0
  0
BLOCK_RECORD
  5
298
330
1
100
AcDbSymbolTableRecord
100
AcDbBlockTableRecord
  2
*D9
340
0
 70
     0
280
     1
281
     0
  0
BLOCK_RECORD
  5
2B2
330
1
100
AcDbSymbolTableRecord
100
AcDbBlockTableRecord
  2
*D10
340
0
 70
     0
280
     1
281
     0
  0
BLOCK_RECORD
  5
37C
330
1
100
AcDbSymbolTableRecord
100
AcDbBlockTableRecord
  2
*D11
340
0
 70
     0
280
     1
281
     0
  0
BLOCK_RECORD
  5
396
330
1
100
AcDbSymbolTableRecord
100
AcDbBlockTableRecord
  2
*D12
340
0
 70
     0
280
     1
281
     0
  0
BLOCK_RECORD
  5
3B0
330
1
100
AcDbSymbolTableRecord
100
AcDbBlockTableRecord
  2
*D13
340
0
 70
     0
280
     1
281
     0
  0
BLOCK_RECORD
  5
3CA
330
1
100
AcDbSymbolTableRecord
100
AcDbBlockTableRecord
  2
*D14
340
0
 70
     0
280
     1
281
     0
  0
BLOCK_RECORD
  5
3E4
330
1
100
AcDbSymbolTableRecord
100
AcDbBlockTableRecord
  2
*D15
340
0
 70
     0
280
     1
281
     0
  0
BLOCK_RECORD
  5
405
330
1
100
AcDbSymbolTableRecord
100
AcDbBlockTableRecord
  2
*D16
340
0
 70
     0
280
     1
281
     0
  0
BLOCK_RECORD
  5
41F
330
1
100
AcDbSymbolTableRecord
100
AcDbBlockTableRecord
  2
*D17
340
0
 70
     0
280
     1
281
     0
  0
BLOCK_RECORD
  5
460
330
1
100
AcDbSymbolTableRecord
100
AcDbBlockTableRecord
  2
*D18
340
0
 70
     0
280
     1
281
     0
  0
BLOCK_RECORD
  5
48E
330
1
100
AcDbSymbolTableRecord
100
AcDbBlockTableRecord
  2
*D19
340
0
 70
     0
280
     1
281
     0
  0
BLOCK_RECORD
  5
4BC
330
1
100
AcDbSymbolTableRecord
100
AcDbBlockTableRecord
  2
*D20
340
0
 70
     0
280
     1
281
     0
  0
BLOCK_RECORD
  5
4D7
330
1
100
AcDbSymbolTableRecord
100
AcDbBlockTableRecord
  2
*D21
340
0
 70
     0
280
     1
281
     0
  0
BLOCK_RECORD
  5
4FB
330
1
100
AcDbSymbolTableRecord
100
AcDbBlockTableRecord
  2
*D22
340
0
 70
     0
280
     1
281
     0
  0
BLOCK_RECORD
  5
515
330
1
100
AcDbSymbolTableRecord
100
AcDbBlockTableRecord
  2
*D23
340
0
 70
     0
280
     1
281
     0
  0
BLOCK_RECORD
  5
539
330
1
100
AcDbSymbolTableRecord
100
AcDbBlockTableRecord
  2
*D24
340
0
 70
     0
280
     1
281
     0
  0
BLOCK_RECORD
  5
553
330
1
100
AcDbSymbolTableRecord
100
AcDbBlockTableRecord
  2
*D25
340
0
 70
     0
280
     1
281
     0
  0
BLOCK_RECORD
  5
581
330
1
100
AcDbSymbolTableRecord
100
AcDbBlockTableRecord
  2
*D26
340
0
 70
     0
280
     1
281
     0
  0
ENDTAB
  0
ENDSEC
  0
SECTION
  2
BLOCKS
  0
BLOCK
  5
20
330
1F
100
AcDbEntity
  8
0
100
AcDbBlockBegin
  2
*Model_Space
 70
     0
 10
0.0
 20
0.0
 30
0.0
  3
*Model_Space
  1

  0
ENDBLK
  5
21
330
1F
100
AcDbEntity
  8
0
100
AcDbBlockEnd
  0
BLOCK
  5
5A
330
58
100
AcDbEntity
 67
     1
  8
0
100
AcDbBlockBegin
  2
*Paper_Space
 70
     0
 10
0.0
 20
0.0
 30
0.0
  3
*Paper_Space
  1

  0
ENDBLK
  5
5B
330
58
100
AcDbEntity
 67
     1
  8
0
100
AcDbBlockEnd
  0
BLOCK
  5
5F
330
5D
100
AcDbEntity
 67
     1
  8
0
100
AcDbBlockBegin
  2
*Paper_Space0
 70
     0
 10
0.0
 20
0.0
 30
0.0
  3
*Paper_Space0
  1

  0
ENDBLK
  5
60
330
5D
100
AcDbEntity
 67
     1
  8
0
100
AcDbBlockEnd
  0
BLOCK
  5
155
330
14A
100
AcDbEntity
  8
0
100
AcDbBlockBegin
  2
*D2
 70
     1
 10
0.0
 20
0.0
 30
0.0
  3
*D2
  1

  0
LINE
  5
60B
330
14A
100
AcDbEntity
  8
dim
 62
     0
370
    -2
100
AcDbLine
 10
939.4031634433815
 20
451.6601526286736
 30
0.0
 11
939.4031634433815
 21
520.494970824702
 31
0.0
  0
LINE
  5
60C
330
14A
100
AcDbEntity
  8
dim
 62
     0
370
    -2
100
AcDbLine
 10
339.4031634433816
 20
451.6601526286736
 30
0.0
 11
339.4031634433816
 21
520.494970824702
 31
0.0
  0
LINE
  5
60D
330
14A
100
AcDbEntity
  8
dim
 62
     0
370
    -2
100
AcDbLine
 10
929.4031634433816
 20
515.494970824702
 30
0.0
 11
656.0698301100481
 21
515.494970824702
 31
0.0
  0
LINE
  5
60E
330
14A
100
AcDbEntity
  8
dim
 62
     0
370
    -2
100
AcDbLine
 10
349.4031634433816
 20
515.494970824702
 30
0.0
 11
622.7364967767149
 21
515.494970824702
 31
0.0
  0
SOLID
  5
60F
330
14A
100
AcDbEntity
  8
dim
 62
     0
100
AcDbTrace
 10
929.4031634433816
 20
517.1616374913686
 30
0.0
 11
929.4031634433816
 21
513.8283041580353
 31
0.0
 12
939.4031634433815
 22
515.494970824702
 32
0.0
 13
939.4031634433815
 23
515.494970824702
 33
0.0
  0
SOLID
  5
610
330
14A
100
AcDbEntity
  8
dim
 62
     0
100
AcDbTrace
 10
349.4031634433816
 20
517.1616374913686
 30
0.0
 11
349.4031634433816
 21
513.8283041580353
 31
0.0
 12
339.4031634433816
 22
515.494970824702
 32
0.0
 13
339.4031634433816
 23
515.494970824702
 33
0.0
  0
MTEXT
  5
611
330
14A
100
AcDbEntity
  8
dim
 62
     0
100
AcDbMText
 10
639.4031634433815
 20
515.494970824702
 30
0.0
 40
10.0
 41
0.0
 46
0.0
 71
     5
 72
     1
  1
\A1;600
 73
     1
 44
1.0
  0
POINT
  5
612
330
14A
100
AcDbEntity
  8
Defpoints
 62
     0
100
AcDbPoint
 10
939.4031634433815
 20
446.6601526286736
 30
0.0
  0
POINT
  5
613
330
14A
100
AcDbEntity
  8
Defpoints
 62
     0
100
AcDbPoint
 10
339.4031634433816
 20
446.6601526286736
 30
0.0
  0
POINT
  5
614
330
14A
100
AcDbEntity
  8
Defpoints
 62
     0
100
AcDbPoint
 10
339.4031634433816
 20
515.494970824702
 30
0.0
  0
ENDBLK
  5
156
330
14A
100
AcDbEntity
  8
0
100
AcDbBlockEnd
  0
BLOCK
  5
1D3
330
1C8
100
AcDbEntity
  8
0
100
AcDbBlockBegin
  2
*D3
 70
     1
 10
0.0
 20
0.0
 30
0.0
  3
*D3
  1

  0
LINE
  5
655
330
1C8
100
AcDbEntity
  8
dim
 62
     0
370
    -2
100
AcDbLine
 10
384.4031634433815
 20
496.6601526286736
 30
0.0
 11
305.512295553805
 21
496.6601526286736
 31
0.0
  0
LINE
  5
656
330
1C8
100
AcDbEntity
  8
dim
 62
     0
370
    -2
100
AcDbLine
 10
384.4031634433815
 20
100.6601526286736
 30
0.0
 11
305.5122955538049
 21
100.6601526286736
 31
0.0
  0
LINE
  5
657
330
1C8
100
AcDbEntity
  8
dim
 62
     0
370
    -2
100
AcDbLine
 10
310.512295553805
 20
486.6601526286737
 30
0.0
 11
310.512295553805
 21
316.993485962007
 31
0.0
  0
LINE
  5
658
330
1C8
100
AcDbEntity
  8
dim
 62
     0
370
    -2
100
AcDbLine
 10
310.5122955538049
 20
110.6601526286736
 30
0.0
 11
310.512295553805
 21
280.3268192953403
 31
0.0
  0
SOLID
  5
659
330
1C8
100
AcDbEntity
  8
dim
 62
     0
100
AcDbTrace
 10
308.8456288871384
 20
486.6601526286737
 30
0.0
 11
312.1789622204717
 21
486.6601526286737
 31
0.0
 12
310.512295553805
 22
496.6601526286736
 32
0.0
 13
310.512295553805
 23
496.6601526286736
 33
0.0
  0
SOLID
  5
65A
330
1C8
100
AcDbEntity
  8
dim
 62
     0
100
AcDbTrace
 10
308.8456288871382
 20
110.6601526286736
 30
0.0
 11
312.1789622204716
 21
110.6601526286736
 31
0.0
 12
310.5122955538049
 22
100.6601526286736
 32
0.0
 13
310.5122955538049
 23
100.6601526286736
 33
0.0
  0
MTEXT
  5
65B
330
1C8
100
AcDbEntity
  8
dim
 62
     0
100
AcDbMText
 10
310.5122955538049
 20
298.6601526286737
 30
0.0
 40
10.0
 41
0.0
 46
0.0
 71
     5
 72
     1
  1
\A1;396
 11
0.0000000000000001
 21
1.0
 31
0.0
 73
     1
 44
1.0
  0
POINT
  5
65C
330
1C8
100
AcDbEntity
  8
Defpoints
 62
     0
100
AcDbPoint
 10
389.4031634433815
 20
496.6601526286736
 30
0.0
  0
POINT
  5
65D
330
1C8
100
AcDbEntity
  8
Defpoints
 62
     0
100
AcDbPoint
 10
389.4031634433815
 20
100.6601526286736
 30
0.0
  0
POINT
  5
65E
330
1C8
100
AcDbEntity
  8
Defpoints
 62
     0
100
AcDbPoint
 10
310.5122955538049
 20
100.6601526286736
 30
0.0
  0
ENDBLK
  5
1D4
330
1C8
100
AcDbEntity
  8
0
100
AcDbBlockEnd
  0
BLOCK
  5
1F7
330
1EC
100
AcDbEntity
  8
0
100
AcDbBlockBegin
  2
*D4
 70
     1
 10
0.0
 20
0.0
 30
0.0
  3
*D4
  1

  0
LINE
  5
2EB
330
1EC
100
AcDbEntity
  8
dim
 62
     0
370
    -2
100
AcDbLine
 10
437.1531634433814
 20
203.6601526286736
 30
0.0
 11
437.1531634433814
 21
221.5868715387478
 31
0.0
  0
LINE
  5
2EC
330
1EC
100
AcDbEntity
  8
dim
 62
     0
370
    -2
100
AcDbLine
 10
339.4031634433816
 20
203.6601526286736
 30
0.0
 11
339.4031634433816
 21
221.5868715387478
 31
0.0
  0
LINE
  5
2ED
330
1EC
100
AcDbEntity
  8
dim
 62
     0
370
    -2
100
AcDbLine
 10
427.1531634433815
 20
216.5868715387478
 30
0.0
 11
413.2781634433816
 21
216.5868715387478
 31
0.0
  0
LINE
  5
2EE
330
1EC
100
AcDbEntity
  8
dim
 62
     0
370
    -2
100
AcDbLine
 10
349.4031634433816
 20
216.5868715387478
 30
0.0
 11
363.2781634433816
 21
216.5868715387478
 31
0.0
  0
SOLID
  5
2EF
330
1EC
100
AcDbEntity
  8
dim
 62
     0
100
AcDbTrace
 10
427.1531634433815
 20
218.2535382054144
 30
0.0
 11
427.1531634433815
 21
214.9202048720812
 31
0.0
 12
437.1531634433814
 22
216.5868715387478
 32
0.0
 13
437.1531634433814
 23
216.5868715387478
 33
0.0
  0
SOLID
  5
2F0
330
1EC
100
AcDbEntity
  8
dim
 62
     0
100
AcDbTrace
 10
349.4031634433816
 20
218.2535382054144
 30
0.0
 11
349.4031634433816
 21
214.9202048720812
 31
0.0
 12
339.4031634433816
 22
216.5868715387478
 32
0.0
 13
339.4031634433816
 23
216.5868715387478
 33
0.0
  0
MTEXT
  5
2F1
330
1EC
100
AcDbEntity
  8
dim
 62
     0
100
AcDbMText
 10
388.2781634433816
 20
216.5868715387478
 30
0.0
 40
10.0
 41
0.0
 46
0.0
 71
     5
 72
     1
  1
\A1;97.75
 73
     1
 44
1.0
  0
POINT
  5
2F2
330
1EC
100
AcDbEntity
  8
Defpoints
 62
     0
100
AcDbPoint
 10
437.1531634433814
 20
198.6601526286736
 30
0.0
  0
POINT
  5
2F3
330
1EC
100
AcDbEntity
  8
Defpoints
 62
     0
100
AcDbPoint
 10
339.4031634433816
 20
198.6601526286736
 30
0.0
  0
POINT
  5
2F4
330
1EC
100
AcDbEntity
  8
Defpoints
 62
     0
100
AcDbPoint
 10
339.4031634433816
 20
216.5868715387478
 30
0.0
  0
ENDBLK
  5
1F8
330
1EC
100
AcDbEntity
  8
0
100
AcDbBlockEnd
  0
BLOCK
  5
211
330
206
100
AcDbEntity
  8
0
100
AcDbBlockBegin
  2
*D5
 70
     1
 10
0.0
 20
0.0
 30
0.0
  3
*D5
  1

  0
LINE
  5
2F5
330
206
100
AcDbEntity
  8
dim
 62
     0
370
    -2
100
AcDbLine
 10
432.1531634433815
 20
198.6601526286736
 30
0.0
 11
415.6279658502967
 21
198.6601526286736
 31
0.0
  0
LINE
  5
2F6
330
206
100
AcDbEntity
  8
dim
 62
     0
370
    -2
100
AcDbLine
 10
432.1531634433815
 20
100.6601526286736
 30
0.0
 11
415.6279658502966
 21
100.6601526286736
 31
0.0
  0
LINE
  5
2F7
330
206
100
AcDbEntity
  8
dim
 62
     0
370
    -2
100
AcDbLine
 10
420.6279658502967
 20
188.6601526286736
 30
0.0
 11
420.6279658502967
 21
162.9934859620069
 31
0.0
  0
LINE
  5
2F8
330
206
100
AcDbEntity
  8
dim
 62
     0
370
    -2
100
AcDbLine
 10
420.6279658502967
 20
110.6601526286736
 30
0.0
 11
420.6279658502967
 21
136.3268192953402
 31
0.0
  0
SOLID
  5
2F9
330
206
100
AcDbEntity
  8
dim
 62
     0
100
AcDbTrace
 10
418.96129918363
 20
188.6601526286736
 30
0.0
 11
422.2946325169634
 21
188.6601526286736
 31
0.0
 12
420.6279658502967
 22
198.6601526286736
 32
0.0
 13
420.6279658502967
 23
198.6601526286736
 33
0.0
  0
SOLID
  5
2FA
330
206
100
AcDbEntity
  8
dim
 62
     0
100
AcDbTrace
 10
418.9612991836299
 20
110.6601526286736
 30
0.0
 11
422.2946325169633
 21
110.6601526286736
 31
0.0
 12
420.6279658502967
 22
100.6601526286736
 32
0.0
 13
420.6279658502967
 23
100.6601526286736
 33
0.0
  0
MTEXT
  5
2FB
330
206
100
AcDbEntity
  8
dim
 62
     0
100
AcDbMText
 10
420.6279658502967
 20
149.6601526286736
 30
0.0
 40
10.0
 41
0.0
 46
0.0
 71
     5
 72
     1
  1
\A1;98
 11
0.0000000000000001
 21
1.0
 31
0.0
 73
     1
 44
1.0
  0
POINT
  5
2FC
330
206
100
AcDbEntity
  8
Defpoints
 62
     0
100
AcDbPoint
 10
437.1531634433814
 20
198.6601526286736
 30
0.0
  0
POINT
  5
2FD
330
206
100
AcDbEntity
  8
Defpoints
 62
     0
100
AcDbPoint
 10
437.1531634433814
 20
100.6601526286736
 30
0.0
  0
POINT
  5
2FE
330
206
100
AcDbEntity
  8
Defpoints
 62
     0
100
AcDbPoint
 10
420.6279658502967
 20
100.6601526286736
 30
0.0
  0
ENDBLK
  5
212
330
206
100
AcDbEntity
  8
0
100
AcDbBlockEnd
  0
BLOCK
  5
22B
330
222
100
AcDbEntity
  8
0
100
AcDbBlockBegin
  2
*D6
 70
     1
 10
0.0
 20
0.0
 30
0.0
  3
*D6
  1

  0
LINE
  5
64E
330
222
100
AcDbEntity
  8
dim
 62
     0
370
    -2
100
AcDbLine
 10
341.6749124253215
 20
99.45454693206029
 30
0.0
 11
348.4932339993302
 21
106.7696334601479
 31
0.0
  0
MTEXT
  5
64F
330
222
100
AcDbEntity
  8
dim
 62
     0
100
AcDbMText
 10
329.7428496708064
 20
86.653145507907
 30
0.0
 40
10.0
 41
0.0
 46
0.0
 71
     5
 72
     1
  1
\A1;R50
 11
0.6818321574008617
 21
0.7315086528087598
 31
0.0
 73
     1
 44
1.0
  0
SOLID
  5
650
330
222
100
AcDbEntity
  8
dim
 62
     0
100
AcDbTrace
 10
347.2740529113156
 20
107.9060203891493
 30
0.0
 11
349.7124150873448
 21
105.6332465311464
 31
0.0
 12
355.3115555733388
 22
114.0847199882355
 32
0.0
 13
355.3115555733388
 23
114.0847199882355
 33
0.0
  0
LINE
  5
651
330
222
100
AcDbEntity
  8
dim
 62
     0
370
    -2
100
AcDbLine
 10
379.4031634433824
 20
150.660152628674
 30
0.0
 11
399.4031634433824
 21
150.660152628674
 31
0.0
  0
LINE
  5
652
330
222
100
AcDbEntity
  8
dim
 62
     0
370
    -2
100
AcDbLine
 10
389.4031634433824
 20
140.660152628674
 30
0.0
 11
389.4031634433824
 21
160.660152628674
 31
0.0
  0
POINT
  5
653
330
222
100
AcDbEntity
  8
Defpoints
 62
     0
100
AcDbPoint
 10
355.3115555733388
 20
114.0847199882355
 30
0.0
  0
POINT
  5
654
330
222
100
AcDbEntity
  8
Defpoints
 62
     0
100
AcDbPoint
 10
389.4031634433824
 20
150.660152628674
 30
0.0
  0
ENDBLK
  5
22C
330
222
100
AcDbEntity
  8
0
100
AcDbBlockEnd
  0
BLOCK
  5
243
330
238
100
AcDbEntity
  8
0
100
AcDbBlockBegin
  2
*D7
 70
     1
 10
0.0
 20
0.0
 30
0.0
  3
*D7
  1

  0
LINE
  5
633
330
238
100
AcDbEntity
  8
dim
 62
     0
370
    -2
100
AcDbLine
 10
639.4031634433813
 20
95.66015262867358
 30
0.0
 11
639.4031634433813
 21
84.27486776422005
 31
0.0
  0
LINE
  5
634
330
238
100
AcDbEntity
  8
dim
 62
     0
370
    -2
100
AcDbLine
 10
624.4031634433813
 20
105.6601526286737
 30
0.0
 11
624.4031634433813
 21
84.27486776422005
 31
0.0
  0
LINE
  5
635
330
238
100
AcDbEntity
  8
dim
 62
     0
370
    -2
100
AcDbLine
 10
614.4031634433813
 20
89.27486776422005
 30
0.0
 11
604.4031634433813
 21
89.27486776422005
 31
0.0
  0
LINE
  5
636
330
238
100
AcDbEntity
  8
dim
 62
     0
370
    -2
100
AcDbLine
 10
649.4031634433813
 20
89.27486776422005
 30
0.0
 11
659.4031634433813
 21
89.27486776422005
 31
0.0
  0
SOLID
  5
637
330
238
100
AcDbEntity
  8
dim
 62
     0
100
AcDbTrace
 10
614.4031634433813
 20
90.94153443088673
 30
0.0
 11
614.4031634433813
 21
87.60820109755339
 31
0.0
 12
624.4031634433813
 22
89.27486776422005
 32
0.0
 13
624.4031634433813
 23
89.27486776422005
 33
0.0
  0
SOLID
  5
638
330
238
100
AcDbEntity
  8
dim
 62
     0
100
AcDbTrace
 10
649.4031634433813
 20
90.94153443088673
 30
0.0
 11
649.4031634433813
 21
87.60820109755339
 31
0.0
 12
639.4031634433813
 22
89.27486776422005
 32
0.0
 13
639.4031634433813
 23
89.27486776422005
 33
0.0
  0
MTEXT
  5
639
330
238
100
AcDbEntity
  8
dim
 62
     0
100
AcDbMText
 10
671.0698301100479
 20
89.27486776422005
 30
0.0
 40
10.0
 41
0.0
 46
0.0
 71
     5
 72
     1
  1
\A1;15
 73
     1
 44
1.0
  0
POINT
  5
63A
330
238
100
AcDbEntity
  8
Defpoints
 62
     0
100
AcDbPoint
 10
639.4031634433813
 20
100.6601526286736
 30
0.0
  0
POINT
  5
63B
330
238
100
AcDbEntity
  8
Defpoints
 62
     0
100
AcDbPoint
 10
624.4031634433813
 20
110.6601526286737
 30
0.0
  0
POINT
  5
63C
330
238
100
AcDbEntity
  8
Defpoints
 62
     0
100
AcDbPoint
 10
624.4031634433813
 20
89.27486776422005
 30
0.0
  0
ENDBLK
  5
244
330
238
100
AcDbEntity
  8
0
100
AcDbBlockEnd
  0
BLOCK
  5
25E
330
252
100
AcDbEntity
  8
0
100
AcDbBlockBegin
  2
*D8
 70
     1
 10
0.0
 20
0.0
 30
0.0
  3
*D8
  1

  0
LINE
  5
63D
330
252
100
AcDbEntity
  8
dim
 62
     0
370
    -2
100
AcDbLine
 10
619.4031634433814
 20
110.6601526286737
 30
0.0
 11
593.9745518682439
 21
110.6601526286737
 31
0.0
  0
LINE
  5
63E
330
252
100
AcDbEntity
  8
dim
 62
     0
370
    -2
100
AcDbLine
 10
619.4031634433814
 20
100.6601526286736
 30
0.0
 11
593.9745518682439
 21
100.6601526286736
 31
0.0
  0
LINE
  5
63F
330
252
100
AcDbEntity
  8
dim
 62
     0
370
    -2
100
AcDbLine
 10
598.9745518682439
 20
90.6601526286736
 30
0.0
 11
598.9745518682439
 21
80.6601526286736
 31
0.0
  0
LINE
  5
640
330
252
100
AcDbEntity
  8
dim
 62
     0
370
    -2
100
AcDbLine
 10
598.9745518682439
 20
120.6601526286737
 30
0.0
 11
598.9745518682439
 21
130.6601526286737
 31
0.0
  0
SOLID
  5
641
330
252
100
AcDbEntity
  8
dim
 62
     0
100
AcDbTrace
 10
597.3078852015772
 20
90.6601526286736
 30
0.0
 11
600.6412185349105
 21
90.6601526286736
 31
0.0
 12
598.9745518682439
 22
100.6601526286736
 32
0.0
 13
598.9745518682439
 23
100.6601526286736
 33
0.0
  0
SOLID
  5
642
330
252
100
AcDbEntity
  8
dim
 62
     0
100
AcDbTrace
 10
597.3078852015772
 20
120.6601526286737
 30
0.0
 11
600.6412185349105
 21
120.6601526286737
 31
0.0
 12
598.9745518682439
 22
110.6601526286737
 32
0.0
 13
598.9745518682439
 23
110.6601526286737
 33
0.0
  0
MTEXT
  5
643
330
252
100
AcDbEntity
  8
dim
 62
     0
100
AcDbMText
 10
598.9745518682439
 20
141.4934859620071
 30
0.0
 40
10.0
 41
0.0
 46
0.0
 71
     5
 72
     1
  1
\A1;10
 11
0.0000000000000001
 21
1.0
 31
0.0
 73
     1
 44
1.0
  0
POINT
  5
644
330
252
100
AcDbEntity
  8
Defpoints
 62
     0
100
AcDbPoint
 10
624.4031634433814
 20
110.6601526286737
 30
0.0
  0
POINT
  5
645
330
252
100
AcDbEntity
  8
Defpoints
 62
     0
100
AcDbPoint
 10
624.4031634433814
 20
100.6601526286736
 30
0.0
  0
POINT
  5
646
330
252
100
AcDbEntity
  8
Defpoints
 62
     0
100
AcDbPoint
 10
598.9745518682439
 20
100.6601526286736
 30
0.0
  0
ENDBLK
  5
25F
330
252
100
AcDbEntity
  8
0
100
AcDbBlockEnd
  0
BLOCK
  5
2A3
330
298
100
AcDbEntity
  8
0
100
AcDbBlockBegin
  2
*D9
 70
     1
 10
0.0
 20
0.0
 30
0.0
  3
*D9
  1

  0
LINE
  5
31A
330
298
100
AcDbEntity
  8
dim
 62
     0
370
    -2
100
AcDbLine
 10
349.4031634433816
 20
318.6601526286736
 30
0.0
 11
349.4031634433816
 21
350.439227918054
 31
0.0
  0
LINE
  5
31B
330
298
100
AcDbEntity
  8
dim
 62
     0
370
    -2
100
AcDbLine
 10
339.4031634433816
 20
318.6601526286736
 30
0.0
 11
339.4031634433816
 21
350.439227918054
 31
0.0
  0
LINE
  5
31C
330
298
100
AcDbEntity
  8
dim
 62
     0
370
    -2
100
AcDbLine
 10
329.4031634433816
 20
345.439227918054
 30
0.0
 11
319.4031634433816
 21
345.439227918054
 31
0.0
  0
LINE
  5
31D
330
298
100
AcDbEntity
  8
dim
 62
     0
370
    -2
100
AcDbLine
 10
359.4031634433816
 20
345.439227918054
 30
0.0
 11
369.4031634433816
 21
345.439227918054
 31
0.0
  0
SOLID
  5
31E
330
298
100
AcDbEntity
  8
dim
 62
     0
100
AcDbTrace
 10
329.4031634433816
 20
347.1058945847207
 30
0.0
 11
329.4031634433816
 21
343.7725612513873
 31
0.0
 12
339.4031634433816
 22
345.439227918054
 32
0.0
 13
339.4031634433816
 23
345.439227918054
 33
0.0
  0
SOLID
  5
31F
330
298
100
AcDbEntity
  8
dim
 62
     0
100
AcDbTrace
 10
359.4031634433816
 20
347.1058945847207
 30
0.0
 11
359.4031634433816
 21
343.7725612513873
 31
0.0
 12
349.4031634433816
 22
345.439227918054
 32
0.0
 13
349.4031634433816
 23
345.439227918054
 33
0.0
  0
MTEXT
  5
320
330
298
100
AcDbEntity
  8
dim
 62
     0
100
AcDbMText
 10
380.2364967767149
 20
345.439227918054
 30
0.0
 40
10.0
 41
0.0
 46
0.0
 71
     5
 72
     1
  1
\A1;10
 73
     1
 44
1.0
  0
POINT
  5
321
330
298
100
AcDbEntity
  8
Defpoints
 62
     0
100
AcDbPoint
 10
349.4031634433816
 20
313.6601526286736
 30
0.0
  0
POINT
  5
322
330
298
100
AcDbEntity
  8
Defpoints
 62
     0
100
AcDbPoint
 10
339.4031634433816
 20
313.6601526286736
 30
0.0
  0
POINT
  5
323
330
298
100
AcDbEntity
  8
Defpoints
 62
     0
100
AcDbPoint
 10
339.4031634433816
 20
345.439227918054
 30
0.0
  0
ENDBLK
  5
2A4
330
298
100
AcDbEntity
  8
0
100
AcDbBlockEnd
  0
BLOCK
  5
2BE
330
2B2
100
AcDbEntity
  8
0
100
AcDbBlockBegin
  2
*D10
 70
     1
 10
0.0
 20
0.0
 30
0.0
  3
*D10
  1

  0
LINE
  5
371
330
2B2
100
AcDbEntity
  8
dim
 62
     0
370
    -2
100
AcDbLine
 10
354.4031634433816
 20
313.6601526286736
 30
0.0
 11
367.6916371320968
 21
313.6601526286736
 31
0.0
  0
LINE
  5
372
330
2B2
100
AcDbEntity
  8
dim
 62
     0
370
    -2
100
AcDbLine
 10
344.4031634433816
 20
298.6601526286736
 30
0.0
 11
367.6916371320968
 21
298.6601526286736
 31
0.0
  0
LINE
  5
373
330
2B2
100
AcDbEntity
  8
dim
 62
     0
370
    -2
100
AcDbLine
 10
362.6916371320968
 20
323.6601526286736
 30
0.0
 11
362.6916371320968
 21
333.6601526286736
 31
0.0
  0
LINE
  5
374
330
2B2
100
AcDbEntity
  8
dim
 62
     0
370
    -2
100
AcDbLine
 10
362.6916371320968
 20
288.6601526286736
 30
0.0
 11
362.6916371320968
 21
278.6601526286736
 31
0.0
  0
SOLID
  5
375
330
2B2
100
AcDbEntity
  8
dim
 62
     0
100
AcDbTrace
 10
361.0249704654301
 20
323.6601526286736
 30
0.0
 11
364.3583037987635
 21
323.6601526286736
 31
0.0
 12
362.6916371320968
 22
313.6601526286736
 32
0.0
 13
362.6916371320968
 23
313.6601526286736
 33
0.0
  0
SOLID
  5
376
330
2B2
100
AcDbEntity
  8
dim
 62
     0
100
AcDbTrace
 10
361.0249704654301
 20
288.6601526286736
 30
0.0
 11
364.3583037987635
 21
288.6601526286736
 31
0.0
 12
362.6916371320968
 22
298.6601526286736
 32
0.0
 13
362.6916371320968
 23
298.6601526286736
 33
0.0
  0
MTEXT
  5
377
330
2B2
100
AcDbEntity
  8
dim
 62
     0
100
AcDbMText
 10
362.6916371320967
 20
266.993485962007
 30
0.0
 40
10.0
 41
0.0
 46
0.0
 71
     5
 72
     1
  1
\A1;15
 11
0.0000000000000001
 21
1.0
 31
0.0
 73
     1
 44
1.0
  0
POINT
  5
378
330
2B2
100
AcDbEntity
  8
Defpoints
 62
     0
100
AcDbPoint
 10
349.4031634433816
 20
313.6601526286736
 30
0.0
  0
POINT
  5
379
330
2B2
100
AcDbEntity
  8
Defpoints
 62
     0
100
AcDbPoint
 10
339.4031634433816
 20
298.6601526286736
 30
0.0
  0
POINT
  5
37A
330
2B2
100
AcDbEntity
  8
Defpoints
 62
     0
100
AcDbPoint
 10
362.6916371320968
 20
298.6601526286736
 30
0.0
  0
ENDBLK
  5
2BF
330
2B2
100
AcDbEntity
  8
0
100
AcDbBlockEnd
  0
BLOCK
  5
384
330
37C
100
AcDbEntity
  8
0
100
AcDbBlockBegin
  2
*D11
 70
     1
 10
0.0
 20
0.0
 30
0.0
  3
*D11
  1

  0
LINE
  5
387
330
37C
100
AcDbEntity
  8
dim
 62
     0
370
    -2
100
AcDbLine
 10
423.747482410302
 20
390.5397833018767
 30
0.0
 11
433.3713522300037
 21
376.9686320122101
 31
0.0
  0
MTEXT
  5
388
330
37C
100
AcDbEntity
  8
dim
 62
     0
100
AcDbMText
 10
411.2142611295048
 20
408.2135720516332
 30
0.0
 40
10.0
 41
0.0
 46
0.0
 71
     5
 72
     1
  1
\A1;\U+2205172
 11
0.5784563668060187
 21
-0.8157133269118389
 31
0.0
 73
     1
 44
1.0
  0
SOLID
  5
389
330
37C
100
AcDbEntity
  8
dim
 62
     0
100
AcDbTrace
 10
434.7308744415234
 20
377.9327259568868
 30
0.0
 11
432.0118300184839
 21
376.0045380675334
 31
0.0
 12
439.1559158980639
 22
368.8114987430918
 32
0.0
 13
439.1559158980639
 23
368.8114987430918
 33
0.0
  0
LINE
  5
38A
330
37C
100
AcDbEntity
  8
dim
 62
     0
370
    -2
100
AcDbLine
 10
478.9031634433815
 20
298.6601526286735
 30
0.0
 11
498.9031634433814
 21
298.6601526286735
 31
0.0
  0
LINE
  5
38B
330
37C
100
AcDbEntity
  8
dim
 62
     0
370
    -2
100
AcDbLine
 10
488.9031634433814
 20
288.6601526286735
 30
0.0
 11
488.9031634433814
 21
308.6601526286735
 31
0.0
  0
POINT
  5
38C
330
37C
100
AcDbEntity
  8
Defpoints
 62
     0
100
AcDbPoint
 10
439.1559158980639
 20
368.8114987430918
 30
0.0
  0
POINT
  5
38D
330
37C
100
AcDbEntity
  8
Defpoints
 62
     0
100
AcDbPoint
 10
538.6504109886991
 20
228.5088065142553
 30
0.0
  0
ENDBLK
  5
385
330
37C
100
AcDbEntity
  8
0
100
AcDbBlockEnd
  0
BLOCK
  5
3A1
330
396
100
AcDbEntity
  8
0
100
AcDbBlockBegin
  2
*D12
 70
     1
 10
0.0
 20
0.0
 30
0.0
  3
*D12
  1

  0
LINE
  5
479
330
396
100
AcDbEntity
  8
dim
 62
     0
370
    -2
100
AcDbLine
 10
789.9031634433815
 20
303.6601526286736
 30
0.0
 11
789.9031634433815
 21
472.0100866321137
 31
0.0
  0
LINE
  5
47A
330
396
100
AcDbEntity
  8
dim
 62
     0
370
    -2
100
AcDbLine
 10
488.9031634433814
 20
303.6601526286736
 30
0.0
 11
488.9031634433814
 21
472.0100866321137
 31
0.0
  0
LINE
  5
47B
330
396
100
AcDbEntity
  8
dim
 62
     0
370
    -2
100
AcDbLine
 10
779.9031634433815
 20
467.0100866321138
 30
0.0
 11
655.2364967767149
 21
467.0100866321138
 31
0.0
  0
LINE
  5
47C
330
396
100
AcDbEntity
  8
dim
 62
     0
370
    -2
100
AcDbLine
 10
498.9031634433815
 20
467.0100866321138
 30
0.0
 11
623.5698301100482
 21
467.0100866321138
 31
0.0
  0
SOLID
  5
47D
330
396
100
AcDbEntity
  8
dim
 62
     0
100
AcDbTrace
 10
779.9031634433815
 20
468.6767532987804
 30
0.0
 11
779.9031634433815
 21
465.343419965447
 31
0.0
 12
789.9031634433815
 22
467.0100866321138
 32
0.0
 13
789.9031634433815
 23
467.0100866321138
 33
0.0
  0
SOLID
  5
47E
330
396
100
AcDbEntity
  8
dim
 62
     0
100
AcDbTrace
 10
498.9031634433815
 20
468.6767532987804
 30
0.0
 11
498.9031634433815
 21
465.343419965447
 31
0.0
 12
488.9031634433814
 22
467.0100866321138
 32
0.0
 13
488.9031634433814
 23
467.0100866321138
 33
0.0
  0
MTEXT
  5
47F
330
396
100
AcDbEntity
  8
dim
 62
     0
100
AcDbMText
 10
639.4031634433815
 20
467.0100866321138
 30
0.0
 40
10.0
 41
0.0
 46
0.0
 71
     5
 72
     1
  1
\A1;301
 73
     1
 44
1.0
  0
POINT
  5
480
330
396
100
AcDbEntity
  8
Defpoints
 62
     0
100
AcDbPoint
 10
789.9031634433815
 20
298.6601526286736
 30
0.0
  0
POINT
  5
481
330
396
100
AcDbEntity
  8
Defpoints
 62
     0
100
AcDbPoint
 10
488.9031634433814
 20
298.6601526286736
 30
0.0
  0
POINT
  5
482
330
396
100
AcDbEntity
  8
Defpoints
 62
     0
100
AcDbPoint
 10
488.9031634433814
 20
467.0100866321138
 30
0.0
  0
ENDBLK
  5
3A2
330
396
100
AcDbEntity
  8
0
100
AcDbBlockEnd
  0
BLOCK
  5
3BB
330
3B0
100
AcDbEntity
  8
0
100
AcDbBlockBegin
  2
*D13
 70
     1
 10
0.0
 20
0.0
 30
0.0
  3
*D13
  1

  0
LINE
  5
5F7
330
3B0
100
AcDbEntity
  8
dim
 62
     0
370
    -2
100
AcDbLine
 10
488.9031634433814
 20
303.6601526286736
 30
0.0
 11
488.9031634433814
 21
451.7294278373126
 31
0.0
  0
LINE
  5
5F8
330
3B0
100
AcDbEntity
  8
dim
 62
     0
370
    -2
100
AcDbLine
 10
639.4031634433814
 20
392.4886607909792
 30
0.0
 11
639.4031634433814
 21
451.7294278373126
 31
0.0
  0
LINE
  5
5F9
330
3B0
100
AcDbEntity
  8
dim
 62
     0
370
    -2
100
AcDbLine
 10
498.9031634433815
 20
446.7294278373126
 30
0.0
 11
547.0405494806773
 21
446.7294278373126
 31
0.0
  0
LINE
  5
5FA
330
3B0
100
AcDbEntity
  8
dim
 62
     0
370
    -2
100
AcDbLine
 10
629.4031634433814
 20
446.7294278373126
 30
0.0
 11
592.0405494806773
 21
446.7294278373126
 31
0.0
  0
SOLID
  5
5FB
330
3B0
100
AcDbEntity
  8
dim
 62
     0
100
AcDbTrace
 10
498.9031634433815
 20
448.3960945039793
 30
0.0
 11
498.9031634433815
 21
445.0627611706459
 31
0.0
 12
488.9031634433814
 22
446.7294278373126
 32
0.0
 13
488.9031634433814
 23
446.7294278373126
 33
0.0
  0
SOLID
  5
5FC
330
3B0
100
AcDbEntity
  8
dim
 62
     0
100
AcDbTrace
 10
629.4031634433814
 20
448.3960945039793
 30
0.0
 11
629.4031634433814
 21
445.0627611706459
 31
0.0
 12
639.4031634433814
 22
446.7294278373126
 32
0.0
 13
639.4031634433814
 23
446.7294278373126
 33
0.0
  0
MTEXT
  5
5FD
330
3B0
100
AcDbEntity
  8
dim
 62
     0
100
AcDbMText
 10
569.5405494806773
 20
446.7294278373126
 30
0.0
 40
10.0
 41
0.0
 46
0.0
 71
     5
 72
     1
  1
\A1;150.5
 73
     1
 44
1.0
  0
POINT
  5
5FE
330
3B0
100
AcDbEntity
  8
Defpoints
 62
     0
100
AcDbPoint
 10
488.9031634433814
 20
298.6601526286736
 30
0.0
  0
POINT
  5
5FF
330
3B0
100
AcDbEntity
  8
Defpoints
 62
     0
100
AcDbPoint
 10
639.4031634433814
 20
387.4886607909792
 30
0.0
  0
POINT
  5
600
330
3B0
100
AcDbEntity
  8
Defpoints
 62
     0
100
AcDbPoint
 10
639.4031634433814
 20
446.7294278373126
 30
0.0
  0
ENDBLK
  5
3BC
330
3B0
100
AcDbEntity
  8
0
100
AcDbBlockEnd
  0
BLOCK
  5
3D5
330
3CA
100
AcDbEntity
  8
0
100
AcDbBlockBegin
  2
*D14
 70
     1
 10
0.0
 20
0.0
 30
0.0
  3
*D14
  1

  0
LINE
  5
3D8
330
3CA
100
AcDbEntity
  8
dim
 62
     0
370
    -2
100
AcDbLine
 10
939.4031634433815
 20
159.3170548244334
 30
0.0
 11
939.4031634433815
 21
178.0516434738433
 31
0.0
  0
LINE
  5
3D9
330
3CA
100
AcDbEntity
  8
dim
 62
     0
370
    -2
100
AcDbLine
 10
907.0831634433815
 20
120.0003161953483
 30
0.0
 11
907.0831634433815
 21
178.0516434738433
 31
0.0
  0
LINE
  5
3DA
330
3CA
100
AcDbEntity
  8
dim
 62
     0
370
    -2
100
AcDbLine
 10
929.4031634433816
 20
173.0516434738433
 30
0.0
 11
917.0831634433815
 21
173.0516434738433
 31
0.0
  0
LINE
  5
3DB
330
3CA
100
AcDbEntity
  8
dim
 62
     0
370
    -2
100
AcDbLine
 10
907.0831634433815
 20
173.0516434738433
 30
0.0
 11
897.0831634433816
 21
173.0516434738433
 31
0.0
  0
SOLID
  5
3DC
330
3CA
100
AcDbEntity
  8
dim
 62
     0
100
AcDbTrace
 10
929.4031634433816
 20
174.71831014051
 30
0.0
 11
929.4031634433816
 21
171.3849768071766
 31
0.0
 12
939.4031634433815
 22
173.0516434738433
 32
0.0
 13
939.4031634433815
 23
173.0516434738433
 33
0.0
  0
SOLID
  5
3DD
330
3CA
100
AcDbEntity
  8
dim
 62
     0
100
AcDbTrace
 10
917.0831634433815
 20
174.71831014051
 30
0.0
 11
917.0831634433815
 21
171.3849768071766
 31
0.0
 12
907.0831634433815
 22
173.0516434738433
 32
0.0
 13
907.0831634433815
 23
173.0516434738433
 33
0.0
  0
MTEXT
  5
3DE
330
3CA
100
AcDbEntity
  8
dim
 62
     0
100
AcDbMText
 10
872.0831634433816
 20
173.0516434738433
 30
0.0
 40
10.0
 41
0.0
 46
0.0
 71
     5
 72
     1
  1
\A1;32.32
 73
     1
 44
1.0
  0
POINT
  5
3DF
330
3CA
100
AcDbEntity
  8
Defpoints
 62
     0
100
AcDbPoint
 10
939.4031634433815
 20
154.3170548244334
 30
0.0
  0
POINT
  5
3E0
330
3CA
100
AcDbEntity
  8
Defpoints
 62
     0
100
AcDbPoint
 10
907.0831634433815
 20
115.0003161953483
 30
0.0
  0
POINT
  5
3E1
330
3CA
100
AcDbEntity
  8
Defpoints
 62
     0
100
AcDbPoint
 10
907.0831634433815
 20
173.0516434738433
 30
0.0
  0
ENDBLK
  5
3D6
330
3CA
100
AcDbEntity
  8
0
100
AcDbBlockEnd
  0
BLOCK
  5
3EF
330
3E4
100
AcDbEntity
  8
0
100
AcDbBlockBegin
  2
*D15
 70
     1
 10
0.0
 20
0.0
 30
0.0
  3
*D15
  1

  0
LINE
  5
3F2
330
3E4
100
AcDbEntity
  8
dim
 62
     0
370
    -2
100
AcDbLine
 10
902.0831634433815
 20
115.0003161953483
 30
0.0
 11
867.1472516297804
 21
115.0003161953483
 31
0.0
  0
LINE
  5
3F3
330
3E4
100
AcDbEntity
  8
dim
 62
     0
370
    -2
100
AcDbLine
 10
884.4031634433816
 20
100.6601526286736
 30
0.0
 11
867.1472516297804
 21
100.6601526286736
 31
0.0
  0
LINE
  5
3F4
330
3E4
100
AcDbEntity
  8
dim
 62
     0
370
    -2
100
AcDbLine
 10
872.1472516297804
 20
125.0003161953483
 30
0.0
 11
872.1472516297804
 21
135.0003161953483
 31
0.0
  0
LINE
  5
3F5
330
3E4
100
AcDbEntity
  8
dim
 62
     0
370
    -2
100
AcDbLine
 10
872.1472516297804
 20
90.66015262867358
 30
0.0
 11
872.1472516297804
 21
80.66015262867358
 31
0.0
  0
SOLID
  5
3F6
330
3E4
100
AcDbEntity
  8
dim
 62
     0
100
AcDbTrace
 10
870.4805849631137
 20
125.0003161953483
 30
0.0
 11
873.813918296447
 21
125.0003161953483
 31
0.0
 12
872.1472516297804
 22
115.0003161953483
 32
0.0
 13
872.1472516297804
 23
115.0003161953483
 33
0.0
  0
SOLID
  5
3F7
330
3E4
100
AcDbEntity
  8
dim
 62
     0
100
AcDbTrace
 10
870.4805849631137
 20
90.66015262867358
 30
0.0
 11
873.813918296447
 21
90.66015262867358
 31
0.0
 12
872.1472516297804
 22
100.6601526286736
 32
0.0
 13
872.1472516297804
 23
100.6601526286736
 33
0.0
  0
MTEXT
  5
3F8
330
3E4
100
AcDbEntity
  8
dim
 62
     0
100
AcDbMText
 10
872.1472516297804
 20
48.16015262867373
 30
0.0
 40
10.0
 41
0.0
 46
0.0
 71
     5
 72
     1
  1
\A1;14.3402
 11
0.0000000000000001
 21
1.0
 31
0.0
 73
     1
 44
1.0
  0
POINT
  5
3F9
330
3E4
100
AcDbEntity
  8
Defpoints
 62
     0
100
AcDbPoint
 10
907.0831634433815
 20
115.0003161953483
 30
0.0
  0
POINT
  5
3FA
330
3E4
100
AcDbEntity
  8
Defpoints
 62
     0
100
AcDbPoint
 10
889.4031634433815
 20
100.6601526286736
 30
0.0
  0
POINT
  5
3FB
330
3E4
100
AcDbEntity
  8
Defpoints
 62
     0
100
AcDbPoint
 10
872.1472516297804
 20
100.6601526286736
 30
0.0
  0
ENDBLK
  5
3F0
330
3E4
100
AcDbEntity
  8
0
100
AcDbBlockEnd
  0
BLOCK
  5
410
330
405
100
AcDbEntity
  8
0
100
AcDbBlockBegin
  2
*D16
 70
     1
 10
0.0
 20
0.0
 30
0.0
  3
*D16
  1

  0
LINE
  5
629
330
405
100
AcDbEntity
  8
dim
 62
     0
370
    -2
100
AcDbLine
 10
939.4031634433815
 20
162.2447731069658
 30
0.0
 11
939.4031634433815
 21
184.9348718609872
 31
0.0
  0
LINE
  5
62A
330
405
100
AcDbEntity
  8
dim
 62
     0
370
    -2
100
AcDbLine
 10
907.0831634433815
 20
115.1701526286736
 30
0.0
 11
907.0831634433815
 21
184.9348718609872
 31
0.0
  0
LINE
  5
62B
330
405
100
AcDbEntity
  8
dim
 62
     0
370
    -2
100
AcDbLine
 10
929.4031634433816
 20
179.9348718609872
 30
0.0
 11
917.0831634433815
 21
179.9348718609872
 31
0.0
  0
LINE
  5
62C
330
405
100
AcDbEntity
  8
dim
 62
     0
370
    -2
100
AcDbLine
 10
907.0831634433815
 20
179.9348718609872
 30
0.0
 11
897.0831634433816
 21
179.9348718609872
 31
0.0
  0
SOLID
  5
62D
330
405
100
AcDbEntity
  8
dim
 62
     0
100
AcDbTrace
 10
929.4031634433816
 20
181.6015385276538
 30
0.0
 11
929.4031634433816
 21
178.2682051943205
 31
0.0
 12
939.4031634433815
 22
179.9348718609872
 32
0.0
 13
939.4031634433815
 23
179.9348718609872
 33
0.0
  0
SOLID
  5
62E
330
405
100
AcDbEntity
  8
dim
 62
     0
100
AcDbTrace
 10
917.0831634433815
 20
181.6015385276538
 30
0.0
 11
917.0831634433815
 21
178.2682051943205
 31
0.0
 12
907.0831634433815
 22
179.9348718609872
 32
0.0
 13
907.0831634433815
 23
179.9348718609872
 33
0.0
  0
MTEXT
  5
62F
330
405
100
AcDbEntity
  8
dim
 62
     0
100
AcDbMText
 10
872.0831634433816
 20
179.9348718609872
 30
0.0
 40
10.0
 41
0.0
 46
0.0
 71
     5
 72
     1
  1
\A1;32.32
 73
     1
 44
1.0
  0
POINT
  5
630
330
405
100
AcDbEntity
  8
Defpoints
 62
     0
100
AcDbPoint
 10
939.4031634433815
 20
157.2447731069658
 30
0.0
  0
POINT
  5
631
330
405
100
AcDbEntity
  8
Defpoints
 62
     0
100
AcDbPoint
 10
907.0831634433815
 20
110.1701526286736
 30
0.0
  0
POINT
  5
632
330
405
100
AcDbEntity
  8
Defpoints
 62
     0
100
AcDbPoint
 10
907.0831634433815
 20
179.9348718609872
 30
0.0
  0
ENDBLK
  5
411
330
405
100
AcDbEntity
  8
0
100
AcDbBlockEnd
  0
BLOCK
  5
42A
330
41F
100
AcDbEntity
  8
0
100
AcDbBlockBegin
  2
*D17
 70
     1
 10
0.0
 20
0.0
 30
0.0
  3
*D17
  1

  0
LINE
  5
61F
330
41F
100
AcDbEntity
  8
dim
 62
     0
370
    -2
100
AcDbLine
 10
902.0831634433815
 20
111.7701526286736
 30
0.0
 11
879.4495937445235
 21
111.7701526286736
 31
0.0
  0
LINE
  5
620
330
41F
100
AcDbEntity
  8
dim
 62
     0
370
    -2
100
AcDbLine
 10
884.4031634433816
 20
100.6601526286736
 30
0.0
 11
879.4495937445235
 21
100.6601526286736
 31
0.0
  0
LINE
  5
621
330
41F
100
AcDbEntity
  8
dim
 62
     0
370
    -2
100
AcDbLine
 10
884.4495937445236
 20
90.66015262867358
 30
0.0
 11
884.4495937445236
 21
80.66015262867358
 31
0.0
  0
LINE
  5
622
330
41F
100
AcDbEntity
  8
dim
 62
     0
370
    -2
100
AcDbLine
 10
884.4495937445236
 20
121.7701526286736
 30
0.0
 11
884.4495937445236
 21
131.7701526286735
 31
0.0
  0
SOLID
  5
623
330
41F
100
AcDbEntity
  8
dim
 62
     0
100
AcDbTrace
 10
882.7829270778568
 20
90.66015262867358
 30
0.0
 11
886.1162604111902
 21
90.66015262867358
 31
0.0
 12
884.4495937445236
 22
100.6601526286736
 32
0.0
 13
884.4495937445236
 23
100.6601526286736
 33
0.0
  0
SOLID
  5
624
330
41F
100
AcDbEntity
  8
dim
 62
     0
100
AcDbTrace
 10
882.7829270778568
 20
121.7701526286736
 30
0.0
 11
886.1162604111902
 21
121.7701526286736
 31
0.0
 12
884.4495937445236
 22
111.7701526286736
 32
0.0
 13
884.4495937445236
 23
111.7701526286736
 33
0.0
  0
MTEXT
  5
625
330
41F
100
AcDbEntity
  8
dim
 62
     0
100
AcDbMText
 10
884.4495937445236
 20
150.103485962007
 30
0.0
 40
10.0
 41
0.0
 46
0.0
 71
     5
 72
     1
  1
\A1;11.11
 11
0.0000000000000001
 21
1.0
 31
0.0
 73
     1
 44
1.0
  0
POINT
  5
626
330
41F
100
AcDbEntity
  8
Defpoints
 62
     0
100
AcDbPoint
 10
907.0831634433815
 20
111.7701526286736
 30
0.0
  0
POINT
  5
627
330
41F
100
AcDbEntity
  8
Defpoints
 62
     0
100
AcDbPoint
 10
889.4031634433815
 20
100.6601526286736
 30
0.0
  0
POINT
  5
628
330
41F
100
AcDbEntity
  8
Defpoints
 62
     0
100
AcDbPoint
 10
884.4495937445236
 20
100.6601526286736
 30
0.0
  0
ENDBLK
  5
42B
330
41F
100
AcDbEntity
  8
0
100
AcDbBlockEnd
  0
BLOCK
  5
46B
330
460
100
AcDbEntity
  8
0
100
AcDbBlockBegin
  2
*D18
 70
     1
 10
0.0
 20
0.0
 30
0.0
  3
*D18
  1

  0
LINE
  5
46E
330
460
100
AcDbEntity
  8
dim
 62
     0
370
    -2
100
AcDbLine
 10
652.1531634433816
 20
410.6601526286736
 30
0.0
 11
673.511028142047
 21
410.6601526286736
 31
0.0
  0
LINE
  5
46F
330
460
100
AcDbEntity
  8
dim
 62
     0
370
    -2
100
AcDbLine
 10
652.1531634433813
 20
350.6601526286735
 30
0.0
 11
673.511028142047
 21
350.6601526286735
 31
0.0
  0
LINE
  5
470
330
460
100
AcDbEntity
  8
dim
 62
     0
370
    -2
100
AcDbLine
 10
668.511028142047
 20
400.6601526286736
 30
0.0
 11
668.511028142047
 21
393.1601526286736
 31
0.0
  0
LINE
  5
471
330
460
100
AcDbEntity
  8
dim
 62
     0
370
    -2
100
AcDbLine
 10
668.511028142047
 20
360.6601526286735
 30
0.0
 11
668.511028142047
 21
368.1601526286736
 31
0.0
  0
SOLID
  5
472
330
460
100
AcDbEntity
  8
dim
 62
     0
100
AcDbTrace
 10
666.8443614753804
 20
400.6601526286736
 30
0.0
 11
670.1776948087136
 21
400.6601526286736
 31
0.0
 12
668.511028142047
 22
410.6601526286736
 32
0.0
 13
668.511028142047
 23
410.6601526286736
 33
0.0
  0
SOLID
  5
473
330
460
100
AcDbEntity
  8
dim
 62
     0
100
AcDbTrace
 10
666.8443614753804
 20
360.6601526286735
 30
0.0
 11
670.1776948087136
 21
360.6601526286735
 31
0.0
 12
668.511028142047
 22
350.6601526286735
 32
0.0
 13
668.511028142047
 23
350.6601526286735
 33
0.0
  0
MTEXT
  5
474
330
460
100
AcDbEntity
  8
dim
 62
     0
100
AcDbMText
 10
668.5110281420469
 20
380.6601526286737
 30
0.0
 40
10.0
 41
0.0
 46
0.0
 71
     5
 72
     1
  1
\A1;60
 11
0.0000000000000001
 21
1.0
 31
0.0
 73
     1
 44
1.0
  0
POINT
  5
475
330
460
100
AcDbEntity
  8
Defpoints
 62
     0
100
AcDbPoint
 10
647.1531634433816
 20
410.6601526286736
 30
0.0
  0
POINT
  5
476
330
460
100
AcDbEntity
  8
Defpoints
 62
     0
100
AcDbPoint
 10
647.1531634433813
 20
350.6601526286735
 30
0.0
  0
POINT
  5
477
330
460
100
AcDbEntity
  8
Defpoints
 62
     0
100
AcDbPoint
 10
668.511028142047
 20
350.6601526286735
 30
0.0
  0
ENDBLK
  5
46C
330
460
100
AcDbEntity
  8
0
100
AcDbBlockEnd
  0
BLOCK
  5
499
330
48E
100
AcDbEntity
  8
0
100
AcDbBlockBegin
  2
*D19
 70
     1
 10
0.0
 20
0.0
 30
0.0
  3
*D19
  1

  0
LINE
  5
49C
330
48E
100
AcDbEntity
  8
dim
 62
     0
370
    -2
100
AcDbLine
 10
650.1531634433814
 20
412.6601526286735
 30
0.0
 11
650.1531634433814
 21
430.0954657294551
 31
0.0
  0
LINE
  5
49D
330
48E
100
AcDbEntity
  8
dim
 62
     0
370
    -2
100
AcDbLine
 10
574.1531634433815
 20
412.6601526286735
 30
0.0
 11
574.1531634433815
 21
430.0954657294551
 31
0.0
  0
LINE
  5
49E
330
48E
100
AcDbEntity
  8
dim
 62
     0
370
    -2
100
AcDbLine
 10
640.1531634433815
 20
425.0954657294551
 30
0.0
 11
625.4864967767149
 21
425.0954657294551
 31
0.0
  0
LINE
  5
49F
330
48E
100
AcDbEntity
  8
dim
 62
     0
370
    -2
100
AcDbLine
 10
584.1531634433815
 20
425.0954657294551
 30
0.0
 11
598.8198301100482
 21
425.0954657294551
 31
0.0
  0
SOLID
  5
4A0
330
48E
100
AcDbEntity
  8
dim
 62
     0
100
AcDbTrace
 10
640.1531634433815
 20
426.7621323961217
 30
0.0
 11
640.1531634433815
 21
423.4287990627883
 31
0.0
 12
650.1531634433814
 22
425.0954657294551
 32
0.0
 13
650.1531634433814
 23
425.0954657294551
 33
0.0
  0
SOLID
  5
4A1
330
48E
100
AcDbEntity
  8
dim
 62
     0
100
AcDbTrace
 10
584.1531634433815
 20
426.7621323961217
 30
0.0
 11
584.1531634433815
 21
423.4287990627883
 31
0.0
 12
574.1531634433815
 22
425.0954657294551
 32
0.0
 13
574.1531634433815
 23
425.0954657294551
 33
0.0
  0
MTEXT
  5
4A2
330
48E
100
AcDbEntity
  8
dim
 62
     0
100
AcDbMText
 10
612.1531634433815
 20
425.0954657294551
 30
0.0
 40
10.0
 41
0.0
 46
0.0
 71
     5
 72
     1
  1
\A1;76
 73
     1
 44
1.0
  0
POINT
  5
4A3
330
48E
100
AcDbEntity
  8
Defpoints
 62
     0
100
AcDbPoint
 10
650.1531634433814
 20
407.6601526286736
 30
0.0
  0
POINT
  5
4A4
330
48E
100
AcDbEntity
  8
Defpoints
 62
     0
100
AcDbPoint
 10
574.1531634433815
 20
407.6601526286736
 30
0.0
  0
POINT
  5
4A5
330
48E
100
AcDbEntity
  8
Defpoints
 62
     0
100
AcDbPoint
 10
574.1531634433815
 20
425.0954657294551
 30
0.0
  0
ENDBLK
  5
49A
330
48E
100
AcDbEntity
  8
0
100
AcDbBlockEnd
  0
BLOCK
  5
4C4
330
4BC
100
AcDbEntity
  8
0
100
AcDbBlockBegin
  2
*D20
 70
     1
 10
0.0
 20
0.0
 30
0.0
  3
*D20
  1

  0
LINE
  5
4C7
330
4BC
100
AcDbEntity
  8
dim
 62
     0
370
    -2
100
AcDbLine
 10
561.4483735118808
 20
336.8565942791024
 30
0.0
 11
568.276543047316
 21
344.1624892136985
 31
0.0
  0
MTEXT
  5
4C8
330
4BC
100
AcDbEntity
  8
dim
 62
     0
100
AcDbMText
 10
552.344147464634
 20
327.1154010329744
 30
0.0
 40
10.0
 41
0.0
 46
0.0
 71
     5
 72
     1
  1
\A1;R3
 11
0.6828169535435084
 21
0.7305894934596051
 31
0.0
 73
     1
 44
1.0
  0
SOLID
  5
4C9
330
4BC
100
AcDbEntity
  8
dim
 62
     0
100
AcDbTrace
 10
567.0588938915499
 20
345.3005174696043
 30
0.0
 11
569.4941922030819
 21
343.0244609577926
 31
0.0
 12
575.104712582751
 22
351.4683841482945
 32
0.0
 13
575.104712582751
 23
351.4683841482945
 33
0.0
  0
LINE
  5
4CA
330
4BC
100
AcDbEntity
  8
dim
 62
     0
370
    -2
100
AcDbLine
 10
567.1531634433818
 20
353.6601526286737
 30
0.0
 11
587.1531634433819
 21
353.6601526286737
 31
0.0
  0
LINE
  5
4CB
330
4BC
100
AcDbEntity
  8
dim
 62
     0
370
    -2
100
AcDbLine
 10
577.1531634433819
 20
343.6601526286737
 30
0.0
 11
577.1531634433819
 21
363.6601526286737
 31
0.0
  0
POINT
  5
4CC
330
4BC
100
AcDbEntity
  8
Defpoints
 62
     0
100
AcDbPoint
 10
575.104712582751
 20
351.4683841482945
 30
0.0
  0
POINT
  5
4CD
330
4BC
100
AcDbEntity
  8
Defpoints
 62
     0
100
AcDbPoint
 10
577.1531634433819
 20
353.6601526286736
 30
0.0
  0
ENDBLK
  5
4C5
330
4BC
100
AcDbEntity
  8
0
100
AcDbBlockEnd
  0
BLOCK
  5
4E2
330
4D7
100
AcDbEntity
  8
0
100
AcDbBlockBegin
  2
*D21
 70
     1
 10
0.0
 20
0.0
 30
0.0
  3
*D21
  1

  0
LINE
  5
5ED
330
4D7
100
AcDbEntity
  8
dim
 62
     0
370
    -2
100
AcDbLine
 10
650.1531634433813
 20
348.6601526286735
 30
0.0
 11
650.1531634433813
 21
323.3916721976192
 31
0.0
  0
LINE
  5
5EE
330
4D7
100
AcDbEntity
  8
dim
 62
     0
370
    -2
100
AcDbLine
 10
639.4031634433814
 20
331.4332119032613
 30
0.0
 11
639.4031634433814
 21
333.3916721976192
 31
0.0
  0
LINE
  5
5EF
330
4D7
100
AcDbEntity
  8
dim
 62
     0
370
    -2
100
AcDbLine
 10
629.4031634433814
 20
328.3916721976192
 30
0.0
 11
619.4031634433814
 21
328.3916721976192
 31
0.0
  0
LINE
  5
5F0
330
4D7
100
AcDbEntity
  8
dim
 62
     0
370
    -2
100
AcDbLine
 10
660.1531634433813
 20
328.3916721976192
 30
0.0
 11
670.1531634433813
 21
328.3916721976192
 31
0.0
  0
SOLID
  5
5F1
330
4D7
100
AcDbEntity
  8
dim
 62
     0
100
AcDbTrace
 10
629.4031634433814
 20
330.0583388642859
 30
0.0
 11
629.4031634433814
 21
326.7250055309525
 31
0.0
 12
639.4031634433814
 22
328.3916721976192
 32
0.0
 13
639.4031634433814
 23
328.3916721976192
 33
0.0
  0
SOLID
  5
5F2
330
4D7
100
AcDbEntity
  8
dim
 62
     0
100
AcDbTrace
 10
660.1531634433813
 20
330.0583388642859
 30
0.0
 11
660.1531634433813
 21
326.7250055309525
 31
0.0
 12
650.1531634433813
 22
328.3916721976192
 32
0.0
 13
650.1531634433813
 23
328.3916721976192
 33
0.0
  0
MTEXT
  5
5F3
330
4D7
100
AcDbEntity
  8
dim
 62
     0
100
AcDbMText
 10
692.6531634433813
 20
328.3916721976192
 30
0.0
 40
10.0
 41
0.0
 46
0.0
 71
     5
 72
     1
  1
\A1;10.75
 73
     1
 44
1.0
  0
POINT
  5
5F4
330
4D7
100
AcDbEntity
  8
Defpoints
 62
     0
100
AcDbPoint
 10
650.1531634433813
 20
353.6601526286735
 30
0.0
  0
POINT
  5
5F5
330
4D7
100
AcDbEntity
  8
Defpoints
 62
     0
100
AcDbPoint
 10
639.4031634433814
 20
326.4332119032613
 30
0.0
  0
POINT
  5
5F6
330
4D7
100
AcDbEntity
  8
Defpoints
 62
     0
100
AcDbPoint
 10
639.4031634433814
 20
328.3916721976192
 30
0.0
  0
ENDBLK
  5
4E3
330
4D7
100
AcDbEntity
  8
0
100
AcDbBlockEnd
  0
BLOCK
  5
506
330
4FB
100
AcDbEntity
  8
0
100
AcDbBlockBegin
  2
*D22
 70
     1
 10
0.0
 20
0.0
 30
0.0
  3
*D22
  1

  0
LINE
  5
576
330
4FB
100
AcDbEntity
  8
dim
 62
     0
370
    -2
100
AcDbLine
 10
600.9648644921512
 20
350.6601526286736
 30
0.0
 11
588.9332996672061
 21
350.6601526286736
 31
0.0
  0
LINE
  5
577
330
4FB
100
AcDbEntity
  8
dim
 62
     0
370
    -2
100
AcDbLine
 10
601.598295042525
 20
225.6601526286736
 30
0.0
 11
588.933299667206
 21
225.6601526286736
 31
0.0
  0
LINE
  5
578
330
4FB
100
AcDbEntity
  8
dim
 62
     0
370
    -2
100
AcDbLine
 10
593.9332996672061
 20
340.6601526286736
 30
0.0
 11
593.9332996672061
 21
304.8268192953403
 31
0.0
  0
LINE
  5
579
330
4FB
100
AcDbEntity
  8
dim
 62
     0
370
    -2
100
AcDbLine
 10
593.933299667206
 20
235.6601526286736
 30
0.0
 11
593.9332996672061
 21
271.4934859620069
 31
0.0
  0
SOLID
  5
57A
330
4FB
100
AcDbEntity
  8
dim
 62
     0
100
AcDbTrace
 10
592.2666330005394
 20
340.6601526286736
 30
0.0
 11
595.5999663338728
 21
340.6601526286736
 31
0.0
 12
593.9332996672061
 22
350.6601526286736
 32
0.0
 13
593.9332996672061
 23
350.6601526286736
 33
0.0
  0
SOLID
  5
57B
330
4FB
100
AcDbEntity
  8
dim
 62
     0
100
AcDbTrace
 10
592.2666330005394
 20
235.6601526286736
 30
0.0
 11
595.5999663338726
 21
235.6601526286736
 31
0.0
 12
593.933299667206
 22
225.6601526286736
 32
0.0
 13
593.933299667206
 23
225.6601526286736
 33
0.0
  0
MTEXT
  5
57C
330
4FB
100
AcDbEntity
  8
dim
 62
     0
100
AcDbMText
 10
593.933299667206
 20
288.1601526286736
 30
0.0
 40
10.0
 41
0.0
 46
0.0
 71
     5
 72
     1
  1
\A1;125
 11
0.0000000000000001
 21
1.0
 31
0.0
 73
     1
 44
1.0
  0
POINT
  5
57D
330
4FB
100
AcDbEntity
  8
Defpoints
 62
     0
100
AcDbPoint
 10
605.9648644921512
 20
350.6601526286736
 30
0.0
  0
POINT
  5
57E
330
4FB
100
AcDbEntity
  8
Defpoints
 62
     0
100
AcDbPoint
 10
606.598295042525
 20
225.6601526286736
 30
0.0
  0
POINT
  5
57F
330
4FB
100
AcDbEntity
  8
Defpoints
 62
     0
100
AcDbPoint
 10
593.933299667206
 20
225.6601526286736
 30
0.0
  0
ENDBLK
  5
507
330
4FB
100
AcDbEntity
  8
0
100
AcDbBlockEnd
  0
BLOCK
  5
520
330
515
100
AcDbEntity
  8
0
100
AcDbBlockBegin
  2
*D23
 70
     1
 10
0.0
 20
0.0
 30
0.0
  3
*D23
  1

  0
LINE
  5
52E
330
515
100
AcDbEntity
  8
dim
 62
     0
370
    -2
100
AcDbLine
 10
651.4031634433814
 20
225.6601526286736
 30
0.0
 11
676.9668378364058
 21
225.6601526286736
 31
0.0
  0
LINE
  5
52F
330
515
100
AcDbEntity
  8
dim
 62
     0
370
    -2
100
AcDbLine
 10
651.4031634433814
 20
180.6601526286736
 30
0.0
 11
676.9668378364058
 21
180.6601526286736
 31
0.0
  0
LINE
  5
530
330
515
100
AcDbEntity
  8
dim
 62
     0
370
    -2
100
AcDbLine
 10
671.9668378364058
 20
235.6601526286736
 30
0.0
 11
671.9668378364058
 21
245.6601526286736
 31
0.0
  0
LINE
  5
531
330
515
100
AcDbEntity
  8
dim
 62
     0
370
    -2
100
AcDbLine
 10
671.9668378364058
 20
170.6601526286736
 30
0.0
 11
671.9668378364058
 21
160.6601526286736
 31
0.0
  0
SOLID
  5
532
330
515
100
AcDbEntity
  8
dim
 62
     0
100
AcDbTrace
 10
670.3001711697392
 20
235.6601526286736
 30
0.0
 11
673.6335045030724
 21
235.6601526286736
 31
0.0
 12
671.9668378364058
 22
225.6601526286736
 32
0.0
 13
671.9668378364058
 23
225.6601526286736
 33
0.0
  0
SOLID
  5
533
330
515
100
AcDbEntity
  8
dim
 62
     0
100
AcDbTrace
 10
670.3001711697392
 20
170.6601526286736
 30
0.0
 11
673.6335045030724
 21
170.6601526286736
 31
0.0
 12
671.9668378364058
 22
180.6601526286736
 32
0.0
 13
671.9668378364058
 23
180.6601526286736
 33
0.0
  0
MTEXT
  5
534
330
515
100
AcDbEntity
  8
dim
 62
     0
100
AcDbMText
 10
671.9668378364058
 20
203.1601526286736
 30
0.0
 40
10.0
 41
0.0
 46
0.0
 71
     5
 72
     1
  1
\A1;45
 11
0.0000000000000001
 21
1.0
 31
0.0
 73
     1
 44
1.0
  0
POINT
  5
535
330
515
100
AcDbEntity
  8
Defpoints
 62
     0
100
AcDbPoint
 10
646.4031634433815
 20
225.6601526286736
 30
0.0
  0
POINT
  5
536
330
515
100
AcDbEntity
  8
Defpoints
 62
     0
100
AcDbPoint
 10
646.4031634433815
 20
180.6601526286736
 30
0.0
  0
POINT
  5
537
330
515
100
AcDbEntity
  8
Defpoints
 62
     0
100
AcDbPoint
 10
671.9668378364058
 20
180.6601526286736
 30
0.0
  0
ENDBLK
  5
521
330
515
100
AcDbEntity
  8
0
100
AcDbBlockEnd
  0
BLOCK
  5
544
330
539
100
AcDbEntity
  8
0
100
AcDbBlockBegin
  2
*D24
 70
     1
 10
0.0
 20
0.0
 30
0.0
  3
*D24
  1

  0
LINE
  5
547
330
539
100
AcDbEntity
  8
dim
 62
     0
370
    -2
100
AcDbLine
 10
649.4031634433814
 20
178.6601526286736
 30
0.0
 11
649.4031634433814
 21
162.1677293485077
 31
0.0
  0
LINE
  5
548
330
539
100
AcDbEntity
  8
dim
 62
     0
370
    -2
100
AcDbLine
 10
560.4031634433814
 20
178.6601526286736
 30
0.0
 11
560.4031634433814
 21
162.1677293485077
 31
0.0
  0
LINE
  5
549
330
539
100
AcDbEntity
  8
dim
 62
     0
370
    -2
100
AcDbLine
 10
639.4031634433814
 20
167.1677293485077
 30
0.0
 11
618.2364967767148
 21
167.1677293485077
 31
0.0
  0
LINE
  5
54A
330
539
100
AcDbEntity
  8
dim
 62
     0
370
    -2
100
AcDbLine
 10
570.4031634433814
 20
167.1677293485077
 30
0.0
 11
591.5698301100481
 21
167.1677293485077
 31
0.0
  0
SOLID
  5
54B
330
539
100
AcDbEntity
  8
dim
 62
     0
100
AcDbTrace
 10
639.4031634433814
 20
168.8343960151743
 30
0.0
 11
639.4031634433814
 21
165.501062681841
 31
0.0
 12
649.4031634433814
 22
167.1677293485077
 32
0.0
 13
649.4031634433814
 23
167.1677293485077
 33
0.0
  0
SOLID
  5
54C
330
539
100
AcDbEntity
  8
dim
 62
     0
100
AcDbTrace
 10
570.4031634433814
 20
168.8343960151743
 30
0.0
 11
570.4031634433814
 21
165.501062681841
 31
0.0
 12
560.4031634433814
 22
167.1677293485077
 32
0.0
 13
560.4031634433814
 23
167.1677293485077
 33
0.0
  0
MTEXT
  5
54D
330
539
100
AcDbEntity
  8
dim
 62
     0
100
AcDbMText
 10
604.9031634433815
 20
167.1677293485077
 30
0.0
 40
10.0
 41
0.0
 46
0.0
 71
     5
 72
     1
  1
\A1;89
 73
     1
 44
1.0
  0
POINT
  5
54E
330
539
100
AcDbEntity
  8
Defpoints
 62
     0
100
AcDbPoint
 10
649.4031634433814
 20
183.6601526286736
 30
0.0
  0
POINT
  5
54F
330
539
100
AcDbEntity
  8
Defpoints
 62
     0
100
AcDbPoint
 10
560.4031634433814
 20
183.6601526286736
 30
0.0
  0
POINT
  5
550
330
539
100
AcDbEntity
  8
Defpoints
 62
     0
100
AcDbPoint
 10
560.4031634433814
 20
167.1677293485077
 30
0.0
  0
ENDBLK
  5
545
330
539
100
AcDbEntity
  8
0
100
AcDbBlockEnd
  0
BLOCK
  5
55E
330
553
100
AcDbEntity
  8
0
100
AcDbBlockBegin
  2
*D25
 70
     1
 10
0.0
 20
0.0
 30
0.0
  3
*D25
  1

  0
LINE
  5
5B1
330
553
100
AcDbEntity
  8
dim
 62
     0
370
    -2
100
AcDbLine
 10
649.4031634433814
 20
227.6601526286736
 30
0.0
 11
649.4031634433814
 21
260.5912699178744
 31
0.0
  0
LINE
  5
5B2
330
553
100
AcDbEntity
  8
dim
 62
     0
370
    -2
100
AcDbLine
 10
639.4031634433814
 20
230.6601526286737
 30
0.0
 11
639.4031634433814
 21
260.5912699178744
 31
0.0
  0
LINE
  5
5B3
330
553
100
AcDbEntity
  8
dim
 62
     0
370
    -2
100
AcDbLine
 10
629.4031634433814
 20
255.5912699178744
 30
0.0
 11
619.4031634433814
 21
255.5912699178744
 31
0.0
  0
LINE
  5
5B4
330
553
100
AcDbEntity
  8
dim
 62
     0
370
    -2
100
AcDbLine
 10
659.4031634433815
 20
255.5912699178744
 30
0.0
 11
669.4031634433814
 21
255.5912699178744
 31
0.0
  0
SOLID
  5
5B5
330
553
100
AcDbEntity
  8
dim
 62
     0
100
AcDbTrace
 10
629.4031634433814
 20
257.2579365845411
 30
0.0
 11
629.4031634433814
 21
253.9246032512077
 31
0.0
 12
639.4031634433814
 22
255.5912699178744
 32
0.0
 13
639.4031634433814
 23
255.5912699178744
 33
0.0
  0
SOLID
  5
5B6
330
553
100
AcDbEntity
  8
dim
 62
     0
100
AcDbTrace
 10
659.4031634433815
 20
257.2579365845411
 30
0.0
 11
659.4031634433815
 21
253.9246032512077
 31
0.0
 12
649.4031634433814
 22
255.5912699178744
 32
0.0
 13
649.4031634433814
 23
255.5912699178744
 33
0.0
  0
MTEXT
  5
5B7
330
553
100
AcDbEntity
  8
dim
 62
     0
100
AcDbMText
 10
680.2364967767148
 20
255.5912699178744
 30
0.0
 40
10.0
 41
0.0
 46
0.0
 71
     5
 72
     1
  1
\A1;10
 73
     1
 44
1.0
  0
POINT
  5
5B8
330
553
100
AcDbEntity
  8
Defpoints
 62
     0
100
AcDbPoint
 10
649.4031634433814
 20
222.6601526286736
 30
0.0
  0
POINT
  5
5B9
330
553
100
AcDbEntity
  8
Defpoints
 62
     0
100
AcDbPoint
 10
639.4031634433814
 20
225.6601526286737
 30
0.0
  0
POINT
  5
5BA
330
553
100
AcDbEntity
  8
Defpoints
 62
     0
100
AcDbPoint
 10
639.4031634433814
 20
255.5912699178744
 30
0.0
  0
ENDBLK
  5
55F
330
553
100
AcDbEntity
  8
0
100
AcDbBlockEnd
  0
BLOCK
  5
58C
330
581
100
AcDbEntity
  8
0
100
AcDbBlockBegin
  2
*D26
 70
     1
 10
0.0
 20
0.0
 30
0.0
  3
*D26
  1

  0
LINE
  5
601
330
581
100
AcDbEntity
  8
dim
 62
     0
370
    -2
100
AcDbLine
 10
611.598295042525
 20
225.6601526286736
 30
0.0
 11
615.6754311940917
 21
225.6601526286736
 31
0.0
  0
LINE
  5
602
330
581
100
AcDbEntity
  8
dim
 62
     0
370
    -2
100
AcDbLine
 10
614.600621629097
 20
298.6601526286736
 30
0.0
 11
605.6754311940919
 21
298.6601526286736
 31
0.0
  0
LINE
  5
603
330
581
100
AcDbEntity
  8
dim
 62
     0
370
    -2
100
AcDbLine
 10
610.6754311940918
 20
235.6601526286736
 30
0.0
 11
610.6754311940918
 21
248.8268192953402
 31
0.0
  0
LINE
  5
604
330
581
100
AcDbEntity
  8
dim
 62
     0
370
    -2
100
AcDbLine
 10
610.6754311940918
 20
288.6601526286736
 30
0.0
 11
610.6754311940918
 21
275.4934859620069
 31
0.0
  0
SOLID
  5
605
330
581
100
AcDbEntity
  8
dim
 62
     0
100
AcDbTrace
 10
609.0087645274251
 20
235.6601526286736
 30
0.0
 11
612.3420978607583
 21
235.6601526286736
 31
0.0
 12
610.6754311940918
 22
225.6601526286736
 32
0.0
 13
610.6754311940918
 23
225.6601526286736
 33
0.0
  0
SOLID
  5
606
330
581
100
AcDbEntity
  8
dim
 62
     0
100
AcDbTrace
 10
609.0087645274252
 20
288.6601526286736
 30
0.0
 11
612.3420978607584
 21
288.6601526286736
 31
0.0
 12
610.6754311940918
 22
298.6601526286736
 32
0.0
 13
610.6754311940918
 23
298.6601526286736
 33
0.0
  0
MTEXT
  5
607
330
581
100
AcDbEntity
  8
dim
 62
     0
100
AcDbMText
 10
610.6754311940918
 20
262.1601526286736
 30
0.0
 40
10.0
 41
0.0
 46
0.0
 71
     5
 72
     1
  1
\A1;73
 11
0.0000000000000001
 21
1.0
 31
0.0
 73
     1
 44
1.0
  0
POINT
  5
608
330
581
100
AcDbEntity
  8
Defpoints
 62
     0
100
AcDbPoint
 10
606.598295042525
 20
225.6601526286736
 30
0.0
  0
POINT
  5
609
330
581
100
AcDbEntity
  8
Defpoints
 62
     0
100
AcDbPoint
 10
619.600621629097
 20
298.6601526286736
 30
0.0
  0
POINT
  5
60A
330
581
100
AcDbEntity
  8
Defpoints
 62
     0
100
AcDbPoint
 10
610.6754311940918
 20
298.6601526286736
 30
0.0
  0
ENDBLK
  5
58D
330
581
100
AcDbEntity
  8
0
100
AcDbBlockEnd
  0
ENDSEC
  0
SECTION
  2
ENTITIES
  0
LWPOLYLINE
  5
B9
102
{ACAD_REACTORS
330
1E0
330
204
330
21E
330
236
330
250
330
26C
330
2B0
330
2CC
330
41D
330
437
102
}
330
1F
100
AcDbEntity
  8
0
100
AcDbPolyline
 90
        8
 70
     1
 43
0.0
 10
389.4031634433816
 20
496.6601526286736
 10
889.4031634433815
 20
496.6601526286736
 42
-0.4142135623730951
 10
939.4031634433815
 20
446.6601526286736
 10
939.4031634433815
 20
150.6601526286736
 42
-0.4142135623730951
 10
889.4031634433815
 20
100.6601526286736
 10
389.4031634433816
 20
100.6601526286736
 42
-0.4142135623730951
 10
339.4031634433816
 20
150.6601526286736
 10
339.4031634433816
 20
446.6601526286736
 42
-0.4142135623730951
  0
CIRCLE
  5
C5
102
{ACAD_REACTORS
330
41D
330
437
102
}
330
1F
100
AcDbEntity
  8
0
100
AcDbCircle
 10
907.0831634433815
 20
111.7701526286736
 30
0.0
 40
1.6
  0
CIRCLE
  5
C9
330
1F
100
AcDbEntity
  8
0
100
AcDbCircle
 10
928.2931634433815
 20
132.9801526286735
 30
0.0
 40
1.6
  0
CIRCLE
  5
D2
102
{ACAD_REACTORS
330
2B0
102
}
330
1F
100
AcDbEntity
  8
0
100
AcDbCircle
 10
349.4031634433816
 20
313.6601526286736
 30
0.0
 40
1.6
  0
CIRCLE
  5
D3
330
1F
100
AcDbEntity
  8
0
100
AcDbCircle
 10
349.4031634433816
 20
283.6601526286736
 30
0.0
 40
1.6
  0
CIRCLE
  5
D4
330
1F
100
AcDbEntity
  8
0
100
AcDbCircle
 10
929.4031634433816
 20
313.6601526286736
 30
0.0
 40
1.6
  0
CIRCLE
  5
D5
330
1F
100
AcDbEntity
  8
0
100
AcDbCircle
 10
929.4031634433816
 20
283.6601526286736
 30
0.0
 40
1.6
  0
CIRCLE
  5
D8
330
1F
100
AcDbEntity
  8
0
100
AcDbCircle
 10
654.4031634433816
 20
486.6601526286736
 30
0.0
 40
1.6
  0
CIRCLE
  5
D9
330
1F
100
AcDbEntity
  8
0
100
AcDbCircle
 10
624.4031634433816
 20
486.6601526286736
 30
0.0
 40
1.6
  0
CIRCLE
  5
DA
330
1F
100
AcDbEntity
  8
0
100
AcDbCircle
 10
654.4031634433814
 20
110.6601526286736
 30
0.0
 40
1.6
  0
CIRCLE
  5
DB
102
{ACAD_REACTORS
330
250
102
}
330
1F
100
AcDbEntity
  8
0
100
AcDbCircle
 10
624.4031634433814
 20
110.6601526286737
 30
0.0
 40
1.6
  0
CIRCLE
  5
DF
330
1F
100
AcDbEntity
  8
pivot
100
AcDbCircle
 10
437.1531634433814
 20
198.6601526286736
 30
0.0
 40
86.0
  0
CIRCLE
  5
E0
330
1F
100
AcDbEntity
  8
0
100
AcDbCircle
 10
437.1531634433814
 20
112.6601526286736
 30
0.0
 40
4.5
  0
CIRCLE
  5
100
330
1F
100
AcDbEntity
  8
0
100
AcDbCircle
 10
497.9643466254246
 20
137.8489694466305
 30
0.0
 40
4.5
  0
CIRCLE
  5
101
330
1F
100
AcDbEntity
  8
0
100
AcDbCircle
 10
523.1531634433814
 20
198.6601526286736
 30
0.0
 40
4.5
  0
CIRCLE
  5
102
330
1F
100
AcDbEntity
  8
0
100
AcDbCircle
 10
497.9643466254246
 20
259.4713358107167
 30
0.0
 40
4.5
  0
CIRCLE
  5
103
330
1F
100
AcDbEntity
  8
0
100
AcDbCircle
 10
437.1531634433815
 20
284.6601526286736
 30
0.0
 40
4.5
  0
CIRCLE
  5
104
330
1F
100
AcDbEntity
  8
0
100
AcDbCircle
 10
376.3419802613384
 20
259.4713358107167
 30
0.0
 40
4.5
  0
CIRCLE
  5
105
330
1F
100
AcDbEntity
  8
0
100
AcDbCircle
 10
351.1531634433815
 20
198.6601526286737
 30
0.0
 40
4.5
  0
CIRCLE
  5
106
330
1F
100
AcDbEntity
  8
0
100
AcDbCircle
 10
376.3419802613384
 20
137.8489694466306
 30
0.0
 40
4.5
  0
CIRCLE
  5
107
330
1F
100
AcDbEntity
  8
pivot
100
AcDbCircle
 10
841.6531634433816
 20
398.6601526286738
 30
0.0
 40
86.0
  0
CIRCLE
  5
108
330
1F
100
AcDbEntity
  8
0
100
AcDbCircle
 10
780.8419802613384
 20
459.4713358107168
 30
0.0
 40
4.5
  0
CIRCLE
  5
109
330
1F
100
AcDbEntity
  8
0
100
AcDbCircle
 10
755.6531634433816
 20
398.6601526286737
 30
0.0
 40
4.5
  0
CIRCLE
  5
10A
330
1F
100
AcDbEntity
  8
0
100
AcDbCircle
 10
780.8419802613384
 20
337.8489694466306
 30
0.0
 40
4.5
  0
CIRCLE
  5
10B
330
1F
100
AcDbEntity
  8
0
100
AcDbCircle
 10
841.6531634433816
 20
312.6601526286738
 30
0.0
 40
4.5
  0
CIRCLE
  5
10C
330
1F
100
AcDbEntity
  8
0
100
AcDbCircle
 10
902.4643466254245
 20
337.8489694466307
 30
0.0
 40
4.5
  0
CIRCLE
  5
10D
330
1F
100
AcDbEntity
  8
0
100
AcDbCircle
 10
902.4643466254245
 20
459.4713358107167
 30
0.0
 40
4.5
  0
CIRCLE
  5
10E
330
1F
100
AcDbEntity
  8
0
100
AcDbCircle
 10
927.6531634433816
 20
398.6601526286734
 30
0.0
 40
4.5
  0
CIRCLE
  5
10F
330
1F
100
AcDbEntity
  8
0
100
AcDbCircle
 10
841.6531634433816
 20
484.6601526286737
 30
0.0
 40
4.5
  0
LINE
  5
111
102
{ACAD_REACTORS
330
599
102
}
330
1F
100
AcDbEntity
  8
pivot
100
AcDbLine
 10
339.4031634433816
 20
298.6601526286736
 30
0.0
 11
939.4031634433815
 21
298.6601526286736
 31
0.0
  0
CIRCLE
  5
113
330
1F
100
AcDbEntity
  8
pivot
100
AcDbCircle
 10
488.9031634433814
 20
298.6601526286736
 30
0.0
 40
86.0
  0
CIRCLE
  5
114
330
1F
100
AcDbEntity
  8
0
100
AcDbCircle
 10
549.7143466254246
 20
237.8489694466305
 30
0.0
 40
4.5
  0
CIRCLE
  5
115
330
1F
100
AcDbEntity
  8
0
100
AcDbCircle
 10
574.9031634433814
 20
298.6601526286736
 30
0.0
 40
4.5
  0
CIRCLE
  5
116
330
1F
100
AcDbEntity
  8
0
100
AcDbCircle
 10
549.7143466254247
 20
359.4713358107167
 30
0.0
 40
4.5
  0
CIRCLE
  5
117
330
1F
100
AcDbEntity
  8
0
100
AcDbCircle
 10
488.9031634433815
 20
384.6601526286736
 30
0.0
 40
4.5
  0
CIRCLE
  5
118
330
1F
100
AcDbEntity
  8
0
100
AcDbCircle
 10
428.0919802613384
 20
359.4713358107167
 30
0.0
 40
4.5
  0
CIRCLE
  5
119
330
1F
100
AcDbEntity
  8
0
100
AcDbCircle
 10
402.9031634433815
 20
298.6601526286738
 30
0.0
 40
4.5
  0
CIRCLE
  5
11A
330
1F
100
AcDbEntity
  8
0
100
AcDbCircle
 10
428.0919802613383
 20
237.8489694466306
 30
0.0
 40
4.5
  0
CIRCLE
  5
11B
330
1F
100
AcDbEntity
  8
0
100
AcDbCircle
 10
488.9031634433814
 20
212.6601526286736
 30
0.0
 40
4.5
  0
CIRCLE
  5
11C
330
1F
100
AcDbEntity
  8
pivot
100
AcDbCircle
 10
789.9031634433815
 20
298.6601526286736
 30
0.0
 40
86.0
  0
CIRCLE
  5
11D
330
1F
100
AcDbEntity
  8
0
100
AcDbCircle
 10
729.0919802613386
 20
237.8489694466305
 30
0.0
 40
4.5
  0
CIRCLE
  5
11E
330
1F
100
AcDbEntity
  8
0
100
AcDbCircle
 10
703.9031634433817
 20
298.6601526286736
 30
0.0
 40
4.5
  0
CIRCLE
  5
11F
330
1F
100
AcDbEntity
  8
0
100
AcDbCircle
 10
729.0919802613384
 20
359.4713358107167
 30
0.0
 40
4.5
  0
CIRCLE
  5
120
330
1F
100
AcDbEntity
  8
0
100
AcDbCircle
 10
789.9031634433815
 20
384.6601526286736
 30
0.0
 40
4.5
  0
CIRCLE
  5
121
330
1F
100
AcDbEntity
  8
0
100
AcDbCircle
 10
850.7143466254246
 20
359.4713358107167
 30
0.0
 40
4.5
  0
CIRCLE
  5
122
330
1F
100
AcDbEntity
  8
0
100
AcDbCircle
 10
875.9031634433815
 20
298.6601526286738
 30
0.0
 40
4.5
  0
CIRCLE
  5
123
330
1F
100
AcDbEntity
  8
0
100
AcDbCircle
 10
850.7143466254246
 20
237.8489694466306
 30
0.0
 40
4.5
  0
CIRCLE
  5
124
330
1F
100
AcDbEntity
  8
0
100
AcDbCircle
 10
789.9031634433815
 20
212.6601526286736
 30
0.0
 40
4.5
  0
LWPOLYLINE
  5
125
102
{ACAD_REACTORS
330
478
330
4A6
330
4EF
330
513
102
}
330
1F
100
AcDbEntity
  8
0
100
AcDbPolyline
 90
        8
 70
     1
 43
0.0
 10
577.1531634433816
 20
410.6601526286736
 10
647.1531634433814
 20
410.6601526286736
 42
-0.4142135623730951
 10
650.1531634433814
 20
407.6601526286736
 10
650.1531634433813
 20
353.6601526286735
 42
-0.4142135623730951
 10
647.1531634433813
 20
350.6601526286735
 10
577.1531634433814
 20
350.6601526286736
 42
-0.4142135623730951
 10
574.1531634433814
 20
353.6601526286736
 10
574.1531634433815
 20
407.6601526286736
 42
-0.4142135623730951
  0
LINE
  5
126
102
{ACAD_REACTORS
330
250
330
3C8
330
4EF
330
56B
102
}
330
1F
100
AcDbEntity
  8
pivot
100
AcDbLine
 10
639.4031634433814
 20
496.6601526286736
 30
0.0
 11
639.4031634433813
 21
100.6601526286736
 31
0.0
  0
LINE
  5
128
102
{ACAD_REACTORS
330
513
102
}
330
1F
100
AcDbEntity
  8
0
100
AcDbLine
 10
617.6624350195541
 20
225.6601526286736
 30
0.0
 11
595.5341550654959
 21
225.6601526286736
 31
0.0
  0
LWPOLYLINE
  5
12A
102
{ACAD_REACTORS
330
52D
330
551
330
56B
102
}
330
1F
100
AcDbEntity
  8
0
100
AcDbPolyline
 90
        8
 70
     1
 43
0.0
 10
563.4031634433815
 20
225.6601526286736
 10
646.4031634433815
 20
225.6601526286736
 42
-0.4142135623730951
 10
649.4031634433814
 20
222.6601526286736
 10
649.4031634433814
 20
183.6601526286736
 42
-0.4142135623730951
 10
646.4031634433815
 20
180.6601526286736
 10
563.4031634433815
 20
180.6601526286736
 42
-0.4142135623730951
 10
560.4031634433814
 20
183.6601526286736
 10
560.4031634433814
 20
222.6601526286736
 42
-0.4142135623730951
  0
CIRCLE
  5
135
330
1F
100
AcDbEntity
  8
0
100
AcDbCircle
 10
488.9031634433815
 20
384.6601526286736
 30
0.0
 40
8.75
  0
CIRCLE
  5
136
330
1F
100
AcDbEntity
  8
0
100
AcDbCircle
 10
428.0919802613385
 20
359.4713358107167
 30
0.0
 40
8.75
  0
CIRCLE
  5
137
330
1F
100
AcDbEntity
  8
0
100
AcDbCircle
 10
402.9031634433814
 20
298.6601526286738
 30
0.0
 40
8.75
  0
CIRCLE
  5
138
330
1F
100
AcDbEntity
  8
0
100
AcDbCircle
 10
428.0919802613381
 20
237.8489694466307
 30
0.0
 40
8.75
  0
CIRCLE
  5
139
330
1F
100
AcDbEntity
  8
0
100
AcDbCircle
 10
488.9031634433813
 20
212.6601526286736
 30
0.0
 40
8.75
  0
CIRCLE
  5
13A
330
1F
100
AcDbEntity
  8
0
100
AcDbCircle
 10
549.7143466254244
 20
237.8489694466304
 30
0.0
 40
8.75
  0
CIRCLE
  5
13B
330
1F
100
AcDbEntity
  8
0
100
AcDbCircle
 10
574.9031634433814
 20
298.6601526286734
 30
0.0
 40
8.75
  0
CIRCLE
  5
13C
330
1F
100
AcDbEntity
  8
0
100
AcDbCircle
 10
549.7143466254247
 20
359.4713358107165
 30
0.0
 40
8.75
  0
CIRCLE
  5
13D
330
1F
100
AcDbEntity
  8
0
100
AcDbCircle
 10
789.9031634433815
 20
384.6601526286736
 30
0.0
 40
8.75
  0
CIRCLE
  5
13E
330
1F
100
AcDbEntity
  8
0
100
AcDbCircle
 10
729.0919802613384
 20
359.4713358107168
 30
0.0
 40
8.75
  0
CIRCLE
  5
13F
330
1F
100
AcDbEntity
  8
0
100
AcDbCircle
 10
703.9031634433816
 20
298.6601526286737
 30
0.0
 40
8.75
  0
CIRCLE
  5
140
330
1F
100
AcDbEntity
  8
0
100
AcDbCircle
 10
729.0919802613383
 20
237.8489694466307
 30
0.0
 40
8.75
  0
CIRCLE
  5
141
330
1F
100
AcDbEntity
  8
0
100
AcDbCircle
 10
789.9031634433813
 20
212.6601526286736
 30
0.0
 40
8.75
  0
CIRCLE
  5
142
330
1F
100
AcDbEntity
  8
0
100
AcDbCircle
 10
850.7143466254243
 20
237.8489694466304
 30
0.0
 40
8.75
  0
CIRCLE
  5
143
330
1F
100
AcDbEntity
  8
0
100
AcDbCircle
 10
875.9031634433814
 20
298.6601526286733
 30
0.0
 40
8.75
  0
CIRCLE
  5
144
330
1F
100
AcDbEntity
  8
0
100
AcDbCircle
 10
850.7143466254246
 20
359.4713358107166
 30
0.0
 40
8.75
  0
DIMENSION
  5
148
330
1F
100
AcDbEntity
  8
dim
100
AcDbDimension
  2
*D2
 10
339.4031634433816
 20
515.494970824702
 30
0.0
 11
639.4031634433815
 21
515.494970824702
 31
0.0
 70
   160
 71
     5
 42
600.0
 73
     0
 74
     0
 75
     0
  3
Standard
100
AcDbAlignedDimension
 13
939.4031634433815
 23
446.6601526286736
 33
0.0
 14
339.4031634433816
 24
446.6601526286736
 34
0.0
100
AcDbRotatedDimension
  0
DIMENSION
  5
1C7
102
{ACAD_XDICTIONARY
360
1D5
102
}
102
{ACAD_REACTORS
330
1E0
102
}
330
1F
100
AcDbEntity
  8
dim
100
AcDbDimension
  2
*D3
 10
310.5122955538049
 20
100.6601526286736
 30
0.0
 11
310.5122955538049
 21
298.6601526286737
 31
0.0
 70
   160
 71
     5
 42
396.0000000000001
 73
     0
 74
     0
 75
     0
  3
Standard
100
AcDbAlignedDimension
 13
389.4031634433815
 23
496.6601526286736
 33
0.0
 14
389.4031634433815
 24
100.6601526286736
 34
0.0
 50
90.0
100
AcDbRotatedDimension
  0
LINE
  5
1E3
330
1F
100
AcDbEntity
  8
pivot
100
AcDbLine
 10
427.1531634433815
 20
198.6601526286736
 30
0.0
 11
447.1531634433815
 21
198.6601526286736
 31
0.0
  0
LINE
  5
1E4
102
{ACAD_REACTORS
330
204
102
}
330
1F
100
AcDbEntity
  8
pivot
100
AcDbLine
 10
437.1531634433814
 20
188.6601526286736
 30
0.0
 11
437.1531634433814
 21
208.6601526286736
 31
0.0
  0
LINE
  5
1E5
330
1F
100
AcDbEntity
  8
pivot
100
AcDbLine
 10
478.9031634433815
 20
298.6601526286736
 30
0.0
 11
498.9031634433815
 21
298.6601526286736
 31
0.0
  0
LINE
  5
1E6
102
{ACAD_REACTORS
330
3AE
102
}
330
1F
100
AcDbEntity
  8
pivot
100
AcDbLine
 10
488.9031634433814
 20
288.6601526286736
 30
0.0
 11
488.9031634433814
 21
308.6601526286736
 31
0.0
  0
LINE
  5
1E7
330
1F
100
AcDbEntity
  8
pivot
100
AcDbLine
 10
779.9031634433815
 20
298.6601526286736
 30
0.0
 11
799.9031634433816
 21
298.6601526286736
 31
0.0
  0
LINE
  5
1E8
102
{ACAD_REACTORS
330
3AE
102
}
330
1F
100
AcDbEntity
  8
pivot
100
AcDbLine
 10
789.9031634433815
 20
288.6601526286736
 30
0.0
 11
789.9031634433815
 21
308.6601526286736
 31
0.0
  0
LINE
  5
1E9
330
1F
100
AcDbEntity
  8
pivot
100
AcDbLine
 10
831.6531634433815
 20
398.6601526286738
 30
0.0
 11
851.6531634433816
 21
398.6601526286738
 31
0.0
  0
LINE
  5
1EA
330
1F
100
AcDbEntity
  8
pivot
100
AcDbLine
 10
841.6531634433816
 20
388.6601526286737
 30
0.0
 11
841.6531634433816
 21
408.6601526286737
 31
0.0
  0
DIMENSION
  5
1EB
102
{ACAD_XDICTIONARY
360
1F9
102
}
102
{ACAD_REACTORS
330
204
102
}
330
1F
100
AcDbEntity
  8
dim
100
AcDbDimension
  2
*D4
 10
339.4031634433816
 20
216.5868715387478
 30
0.0
 11
388.2781634433816
 21
216.5868715387478
 31
0.0
 70
    32
 71
     5
 42
97.74999999999995
 73
     0
 74
     0
 75
     0
  3
Standard
100
AcDbAlignedDimension
 13
437.1531634433814
 23
198.6601526286736
 33
0.0
 14
339.4031634433816
 24
198.6601526286736
 34
0.0
100
AcDbRotatedDimension
  0
DIMENSION
  5
205
102
{ACAD_XDICTIONARY
360
213
102
}
102
{ACAD_REACTORS
330
21E
102
}
330
1F
100
AcDbEntity
  8
dim
100
AcDbDimension
  2
*D5
 10
420.6279658502967
 20
100.6601526286736
 30
0.0
 11
420.6279658502967
 21
149.6601526286736
 31
0.0
 70
    32
 71
     5
 42
97.99999999999998
 73
     0
 74
     0
 75
     0
  3
Standard
100
AcDbAlignedDimension
 13
437.1531634433814
 23
198.6601526286736
 33
0.0
 14
437.1531634433814
 24
100.6601526286736
 34
0.0
 50
90.0
100
AcDbRotatedDimension
  0
LEADER
  5
21F
330
1F
100
AcDbEntity
  8
dim
100
AcDbLeader
  3
Standard
 76
     3
 10
501.6230263436736
 20
135.2290338139721
 30
0.0
 10
521.9966064428831
 20
117.538599923914
 30
0.0
 10
568.6661469094069
 20
117.538599923914
 30
0.0
1001
ACAD
1000
DSTYLE
1002
{
1070
   147
1040
5.0
1070
    77
1070
     0
1002
}
  0
MTEXT
  5
220
330
1F
100
AcDbEntity
  8
dim
100
AcDbMText
 10
522.9494807892601
 20
131.4070418638412
 30
0.0
 40
10.0
 41
66.45742554616709
 46
0.0
 71
     1
 72
     5
  1
32x%%C9
 73
     1
 44
1.0
  0
DIMENSION
  5
221
102
{ACAD_XDICTIONARY
360
22D
102
}
102
{ACAD_REACTORS
330
236
102
}
330
1F
100
AcDbEntity
  8
dim
100
AcDbDimension
  2
*D6
 10
389.4031634433824
 20
150.660152628674
 30
0.0
 11
329.7428496708064
 21
86.653145507907
 31
0.0
 70
    36
 71
     5
 42
50.00000000000079
 73
     0
 74
     0
 75
     0
  3
Standard
100
AcDbRadialDimension
 15
355.3115555733388
 25
114.0847199882355
 35
0.0
 40
0.0
1001
ACAD
1000
DSTYLE
1002
{
1070
   288
1070
     1
1002
}
  0
DIMENSION
  5
237
102
{ACAD_XDICTIONARY
360
245
102
}
102
{ACAD_REACTORS
330
250
102
}
330
1F
100
AcDbEntity
  8
dim
100
AcDbDimension
  2
*D7
 10
624.4031634433813
 20
89.27486776422005
 30
0.0
 11
671.0698301100479
 21
89.27486776422005
 31
0.0
 70
   160
 71
     5
 42
15.0
 73
     0
 74
     0
 75
     0
  3
Standard
100
AcDbAlignedDimension
 13
639.4031634433813
 23
100.6601526286736
 33
0.0
 14
624.4031634433813
 24
110.6601526286737
 34
0.0
100
AcDbRotatedDimension
  0
DIMENSION
  5
251
102
{ACAD_XDICTIONARY
360
260
102
}
102
{ACAD_REACTORS
330
26C
102
}
330
1F
100
AcDbEntity
  8
dim
100
AcDbDimension
  2
*D8
 10
598.9745518682439
 20
100.6601526286736
 30
0.0
 11
598.9745518682439
 21
141.4934859620071
 31
0.0
 70
   160
 71
     5
 42
10.00000000000011
 73
     0
 74
     0
 75
     0
  3
Standard
100
AcDbAlignedDimension
 13
624.4031634433814
 23
110.6601526286737
 33
0.0
 14
624.4031634433814
 24
100.6601526286736
 34
0.0
 50
90.0
100
AcDbRotatedDimension
  0
DIMENSION
  5
297
102
{ACAD_XDICTIONARY
360
2A5
102
}
102
{ACAD_REACTORS
330
2B0
102
}
330
1F
100
AcDbEntity
  8
dim
100
AcDbDimension
  2
*D9
 10
339.4031634433816
 20
345.439227918054
 30
0.0
 11
380.2364967767149
 21
345.439227918054
 31
0.0
 70
   160
 71
     5
 42
10.0
 73
     0
 74
     0
 75
     0
  3
Standard
100
AcDbAlignedDimension
 13
349.4031634433816
 23
313.6601526286736
 33
0.0
 14
339.4031634433816
 24
313.6601526286736
 34
0.0
100
AcDbRotatedDimension
  0
DIMENSION
  5
2B1
102
{ACAD_XDICTIONARY
360
2C0
102
}
102
{ACAD_REACTORS
330
2CC
102
}
330
1F
100
AcDbEntity
  8
dim
100
AcDbDimension
  2
*D10
 10
362.6916371320968
 20
298.6601526286736
 30
0.0
 11
362.6916371320967
 21
266.993485962007
 31
0.0
 70
   160
 71
     5
 42
15.0
 73
     0
 74
     0
 75
     0
  3
Standard
100
AcDbAlignedDimension
 13
349.4031634433816
 23
313.6601526286736
 33
0.0
 14
339.4031634433816
 24
298.6601526286736
 34
0.0
 50
90.0
100
AcDbRotatedDimension
  0
MTEXT
  5
390
330
1F
100
AcDbEntity
  8
dim
100
AcDbMText
 10
370.2236261290448
 20
408.0494673860012
 30
0.0
 40
10.0
 41
66.45742554616709
 46
0.0
 71
     1
 72
     5
  1
4x%%C172
 73
     1
 44
1.0
  0
LEADER
  5
391
330
1F
100
AcDbEntity
  8
dim
100
AcDbLeader
  3
Standard
 76
     3
 10
440.6138975353715
 20
370.3564554533393
 30
0.0
 10
425.7787756572516
 20
394.5107651027636
 30
0.0
 10
370.7024410766398
 20
394.5107651027636
 30
0.0
1001
ACAD
1000
DSTYLE
1002
{
1070
   147
1040
5.0
1070
    77
1070
     0
1002
}
  0
MTEXT
  5
393
330
1F
100
AcDbEntity
  8
dim
100
AcDbMText
 10
389.645118527925
 20
463.0323244822191
 30
0.0
 40
10.0
 41
66.45742554616709
 46
0.0
 71
     1
 72
     5
  1
16x%%C17.30\P{\H0.7x;Countersink\PDIN74-Af8}
 73
     1
 44
1.0
  0
LEADER
  5
394
330
1F
100
AcDbEntity
  8
dim
100
AcDbLeader
  3
Standard
 76
     3
 10
488.9031634433815
 20
393.4101526286736
 30
0.0
 10
461.5869235816526
 20
449.5378092280882
 30
0.0
 10
387.4170757287707
 20
449.5378092280882
 30
0.0
1001
ACAD
1000
DSTYLE
1002
{
1070
   147
1040
5.0
1070
    77
1070
     0
1002
}
  0
DIMENSION
  5
395
102
{ACAD_XDICTIONARY
360
3A3
102
}
102
{ACAD_REACTORS
330
3AE
102
}
330
1F
100
AcDbEntity
  8
dim
100
AcDbDimension
  2
*D12
 10
488.9031634433814
 20
467.0100866321138
 30
0.0
 11
639.4031634433815
 21
467.0100866321138
 31
0.0
 70
   160
 71
     5
 42
301.0000000000001
 73
     0
 74
     0
 75
     0
  3
Standard
100
AcDbAlignedDimension
 13
789.9031634433815
 23
298.6601526286736
 33
0.0
 14
488.9031634433814
 24
298.6601526286736
 34
0.0
100
AcDbRotatedDimension
  0
DIMENSION
  5
3AF
102
{ACAD_XDICTIONARY
360
3BD
102
}
102
{ACAD_REACTORS
330
3C8
102
}
330
1F
100
AcDbEntity
  8
dim
100
AcDbDimension
  2
*D13
 10
639.4031634433814
 20
446.7294278373126
 30
0.0
 11
569.5405494806773
 21
446.7294278373126
 31
0.0
 70
   160
 71
     5
 42
150.4999999999999
 73
     0
 74
     0
 75
     0
  3
Standard
100
AcDbAlignedDimension
 13
488.9031634433814
 23
298.6601526286736
 33
0.0
 14
639.4031634433814
 24
387.4886607909792
 34
0.0
100
AcDbRotatedDimension
  0
DIMENSION
  5
404
102
{ACAD_XDICTIONARY
360
412
102
}
102
{ACAD_REACTORS
330
41D
102
}
330
1F
100
AcDbEntity
  8
dim
100
AcDbDimension
  2
*D16
 10
907.0831634433815
 20
179.9348718609872
 30
0.0
 11
872.0831634433816
 21
179.9348718609872
 31
0.0
 70
   160
 71
     5
 42
32.32000000000005
 73
     0
 74
     0
 75
     0
  3
Standard
100
AcDbAlignedDimension
 13
939.4031634433815
 23
157.2447731069658
 33
0.0
 14
907.0831634433815
 24
110.1701526286736
 34
0.0
100
AcDbRotatedDimension
  0
DIMENSION
  5
41E
102
{ACAD_XDICTIONARY
360
42C
102
}
102
{ACAD_REACTORS
330
437
102
}
330
1F
100
AcDbEntity
  8
dim
100
AcDbDimension
  2
*D17
 10
884.4495937445236
 20
100.6601526286736
 30
0.0
 11
884.4495937445236
 21
150.103485962007
 31
0.0
 70
   160
 71
     5
 42
11.11
 73
     0
 74
     0
 75
     0
  3
Standard
100
AcDbAlignedDimension
 13
907.0831634433815
 23
111.7701526286736
 33
0.0
 14
889.4031634433815
 24
100.6601526286736
 34
0.0
 50
90.0
100
AcDbRotatedDimension
  0
CIRCLE
  5
438
330
1F
100
AcDbEntity
  8
0
100
AcDbCircle
 10
907.0831634433815
 20
485.5501526286736
 30
0.0
 40
1.6
  0
CIRCLE
  5
439
330
1F
100
AcDbEntity
  8
0
100
AcDbCircle
 10
928.2931634433815
 20
464.3401526286735
 30
0.0
 40
1.6
  0
CIRCLE
  5
43A
330
1F
100
AcDbEntity
  8
0
100
AcDbCircle
 10
371.7231634433816
 20
485.5501526286736
 30
0.0
 40
1.6
  0
CIRCLE
  5
43B
330
1F
100
AcDbEntity
  8
0
100
AcDbCircle
 10
350.5131634433816
 20
464.3401526286735
 30
0.0
 40
1.6
  0
CIRCLE
  5
43C
330
1F
100
AcDbEntity
  8
0
100
AcDbCircle
 10
371.7231634433816
 20
111.7701526286736
 30
0.0
 40
1.6
  0
CIRCLE
  5
43D
330
1F
100
AcDbEntity
  8
0
100
AcDbCircle
 10
350.5131634433816
 20
132.9801526286735
 30
0.0
 40
1.6
  0
LEADER
  5
45D
330
1F
100
AcDbEntity
  8
dim
100
AcDbLeader
  3
Standard
 76
     3
 10
928.0919507376269
 20
280.2950782855949
 30
0.0
 10
919.5078354888961
 20
256.9221224583441
 30
0.0
 10
856.2200020200116
 20
256.9221224583441
 30
0.0
1001
ACAD
1000
DSTYLE
1002
{
1070
   147
1040
5.0
1070
    77
1070
     0
1002
}
  0
MTEXT
  5
45E
330
1F
100
AcDbEntity
  8
dim
100
AcDbMText
 10
858.2592602037225
 20
269.6778157687274
 30
0.0
 40
10.0
 41
66.45742554616709
 46
0.0
 71
     1
 72
     5
  1
16x%%C3.2
 73
     1
 44
1.0
  0
DIMENSION
  5
45F
102
{ACAD_XDICTIONARY
360
46D
102
}
102
{ACAD_REACTORS
330
478
102
}
330
1F
100
AcDbEntity
  8
dim
100
AcDbDimension
  2
*D18
 10
668.511028142047
 20
350.6601526286735
 30
0.0
 11
668.5110281420469
 21
380.6601526286737
 31
0.0
 70
    32
 71
     5
 42
60.00000000000011
 73
     0
 74
     0
 75
     0
  3
Standard
100
AcDbAlignedDimension
 13
647.1531634433816
 23
410.6601526286736
 33
0.0
 14
647.1531634433813
 24
350.6601526286735
 34
0.0
 50
90.0
100
AcDbRotatedDimension
  0
DIMENSION
  5
48D
102
{ACAD_XDICTIONARY
360
49B
102
}
102
{ACAD_REACTORS
330
4A6
102
}
330
1F
100
AcDbEntity
  8
dim
100
AcDbDimension
  2
*D19
 10
574.1531634433815
 20
425.0954657294551
 30
0.0
 11
612.1531634433815
 21
425.0954657294551
 31
0.0
 70
    32
 71
     5
 42
75.99999999999988
 73
     0
 74
     0
 75
     0
  3
Standard
100
AcDbAlignedDimension
 13
650.1531634433814
 23
407.6601526286736
 33
0.0
 14
574.1531634433815
 24
407.6601526286736
 34
0.0
100
AcDbRotatedDimension
  0
LINE
  5
4CF
330
1F
100
AcDbEntity
  8
dim
100
AcDbLine
 10
561.4483735118808
 20
336.8565942791024
 30
0.0
 11
568.276543047316
 21
344.1624892136985
 31
0.0
  0
MTEXT
  5
4D0
330
1F
100
AcDbEntity
  8
dim
100
AcDbMText
 10
552.344147464634
 20
327.1154010329744
 30
0.0
 40
10.0
 41
0.0
 46
0.0
 71
     5
 72
     1
  1
\A1;R3
 11
0.6828169535435084
 21
0.7305894934596051
 31
0.0
 73
     1
 44
1.0
  0
SOLID
  5
4D1
330
1F
100
AcDbEntity
  8
dim
100
AcDbTrace
 10
567.0588938915499
 20
345.3005174696043
 30
0.0
 11
569.4941922030819
 21
343.0244609577926
 31
0.0
 12
575.104712582751
 22
351.4683841482945
 32
0.0
 13
575.104712582751
 23
351.4683841482945
 33
0.0
  0
DIMENSION
  5
4D6
102
{ACAD_XDICTIONARY
360
4E4
102
}
102
{ACAD_REACTORS
330
4EF
102
}
330
1F
100
AcDbEntity
  8
dim
100
AcDbDimension
  2
*D21
 10
639.4031634433814
 20
328.3916721976192
 30
0.0
 11
692.6531634433813
 21
328.3916721976192
 31
0.0
 70
   160
 71
     5
 42
10.74999999999988
 73
     0
 74
     0
 75
     0
  3
Standard
100
AcDbAlignedDimension
 13
650.1531634433813
 23
353.6601526286735
 33
0.0
 14
639.4031634433814
 24
326.4332119032613
 34
0.0
100
AcDbRotatedDimension
  0
DIMENSION
  5
4FA
102
{ACAD_XDICTIONARY
360
508
102
}
102
{ACAD_REACTORS
330
513
102
}
330
1F
100
AcDbEntity
  8
dim
100
AcDbDimension
  2
*D22
 10
593.933299667206
 20
225.6601526286736
 30
0.0
 11
593.933299667206
 21
288.1601526286736
 31
0.0
 70
   160
 71
     5
 42
125.0
 73
     0
 74
     0
 75
     0
  3
Standard
100
AcDbAlignedDimension
 13
605.9648644921512
 23
350.6601526286736
 33
0.0
 14
606.598295042525
 24
225.6601526286736
 34
0.0
 50
90.0
100
AcDbRotatedDimension
  0
DIMENSION
  5
514
102
{ACAD_XDICTIONARY
360
522
102
}
102
{ACAD_REACTORS
330
52D
102
}
330
1F
100
AcDbEntity
  8
dim
100
AcDbDimension
  2
*D23
 10
671.9668378364058
 20
180.6601526286736
 30
0.0
 11
671.9668378364058
 21
203.1601526286736
 31
0.0
 70
   160
 71
     5
 42
45.00000000000002
 73
     0
 74
     0
 75
     0
  3
Standard
100
AcDbAlignedDimension
 13
646.4031634433815
 23
225.6601526286736
 33
0.0
 14
646.4031634433815
 24
180.6601526286736
 34
0.0
 50
90.0
100
AcDbRotatedDimension
  0
DIMENSION
  5
538
102
{ACAD_XDICTIONARY
360
546
102
}
102
{ACAD_REACTORS
330
551
102
}
330
1F
100
AcDbEntity
  8
dim
100
AcDbDimension
  2
*D24
 10
560.4031634433814
 20
167.1677293485077
 30
0.0
 11
604.9031634433815
 21
167.1677293485077
 31
0.0
 70
    32
 71
     5
 42
89.0
 73
     0
 74
     0
 75
     0
  3
Standard
100
AcDbAlignedDimension
 13
649.4031634433814
 23
183.6601526286736
 33
0.0
 14
560.4031634433814
 24
183.6601526286736
 34
0.0
100
AcDbRotatedDimension
  0
DIMENSION
  5
552
102
{ACAD_XDICTIONARY
360
560
102
}
102
{ACAD_REACTORS
330
56B
102
}
330
1F
100
AcDbEntity
  8
dim
100
AcDbDimension
  2
*D25
 10
639.4031634433814
 20
255.5912699178744
 30
0.0
 11
680.2364967767148
 21
255.5912699178744
 31
0.0
 70
   160
 71
     5
 42
10.0
 73
     0
 74
     0
 75
     0
  3
Standard
100
AcDbAlignedDimension
 13
649.4031634433814
 23
222.6601526286736
 33
0.0
 14
639.4031634433814
 24
225.6601526286737
 34
0.0
100
AcDbRotatedDimension
  0
DIMENSION
  5
580
102
{ACAD_XDICTIONARY
360
58E
102
}
102
{ACAD_REACTORS
330
599
102
}
330
1F
100
AcDbEntity
  8
dim
100
AcDbDimension
  2
*D26
 10
610.6754311940918
 20
298.6601526286736
 30
0.0
 11
610.6754311940918
 21
262.1601526286736
 31
0.0
 70
   160
 71
     5
 42
72.99999999999997
 73
     0
 74
     0
 75
     0
  3
Standard
100
AcDbAlignedDimension
 13
606.598295042525
 23
225.6601526286736
 33
0.0
 14
619.600621629097
 24
298.6601526286736
 34
0.0
 50
90.0
100
AcDbRotatedDimension
  0
LINE
  5
59A
330
1F
100
AcDbEntity
  8
dim
100
AcDbLine
 10
547.6255040289515
 20
166.9270424159217
 30
0.0
 11
554.4536735643866
 21
174.2329373505178
 31
0.0
  0
MTEXT
  5
59B
330
1F
100
AcDbEntity
  8
dim
100
AcDbMText
 10
538.5212779817047
 20
157.1858491697938
 30
0.0
 40
10.0
 41
0.0
 46
0.0
 71
     5
 72
     1
  1
\A1;R3
 11
0.6828169535435084
 21
0.7305894934596051
 31
0.0
 73
     1
 44
1.0
  0
SOLID
  5
59C
330
1F
100
AcDbEntity
  8
dim
100
AcDbTrace
 10
553.2360244086206
 20
175.3709656064236
 30
0.0
 11
555.6713227201527
 21
173.094909094612
 31
0.0
 12
561.2818430998218
 22
181.5388322851139
 32
0.0
 13
561.2818430998218
 23
181.5388322851139
 33
0.0
  0
ENDSEC
  0
SECTION
  2
OBJECTS
  0
DICTIONARY
  5
C
330
0
100
AcDbDictionary
281
     1
  3
ACAD_COLOR
350
73
  3
ACAD_GROUP
350
D
  3
ACAD_LAYOUT
350
1A
  3
ACAD_MATERIAL
350
72
  3
ACAD_MLINESTYLE
350
17
  3
ACAD_PLOTSETTINGS
350
19
  3
ACAD_PLOTSTYLENAME
350
E
  3
ACAD_TABLESTYLE
350
86
  3
ACAD_VISUALSTYLE
350
99
  3
AcadDim
350
45C
  3
AcDbVariableDictionary
350
66
  0
DICTIONARY
  5
132
330
2
100
AcDbDictionary
280
     1
281
     1
  3
ACAD_LAYERFILTERS
360
147
  3
ACLYDICTIONARY
360
146
  0
DICTIONARY
  5
4D4
330
1F
100
AcDbDictionary
280
     1
281
     1
  3
ACAD_SORTENTS
360
4D5
  0
DICTIONARY
  5
1D5
330
1C7
100
AcDbDictionary
280
     1
281
     1
  3
ACAD_DIMASSOC
360
1E0
  0
DICTIONARY
  5
1F9
330
1EB
100
AcDbDictionary
280
     1
281
     1
  3
ACAD_DIMASSOC
360
204
  0
DICTIONARY
  5
213
330
205
100
AcDbDictionary
280
     1
281
     1
  3
ACAD_DIMASSOC
360
21E
  0
DICTIONARY
  5
22D
330
221
100
AcDbDictionary
280
     1
281
     1
  3
ACAD_DIMASSOC
360
236
  0
DICTIONARY
  5
245
330
237
100
AcDbDictionary
280
     1
281
     1
  3
ACAD_DIMASSOC
360
250
  0
DICTIONARY
  5
260
330
251
100
AcDbDictionary
280
     1
281
     1
  3
ACAD_DIMASSOC
360
26C
  0
DICTIONARY
  5
2A5
330
297
100
AcDbDictionary
280
     1
281
     1
  3
ACAD_DIMASSOC
360
2B0
  0
DICTIONARY
  5
2C0
330
2B1
100
AcDbDictionary
280
     1
281
     1
  3
ACAD_DIMASSOC
360
2CC
  0
DICTIONARY
  5
3A3
330
395
100
AcDbDictionary
280
     1
281
     1
  3
ACAD_DIMASSOC
360
3AE
  0
DICTIONARY
  5
3BD
330
3AF
100
AcDbDictionary
280
     1
281
     1
  3
ACAD_DIMASSOC
360
3C8
  0
DICTIONARY
  5
412
330
404
100
AcDbDictionary
280
     1
281
     1
  3
ACAD_DIMASSOC
360
41D
  0
DICTIONARY
  5
42C
330
41E
100
AcDbDictionary
280
     1
281
     1
  3
ACAD_DIMASSOC
360
437
  0
DICTIONARY
  5
46D
330
45F
100
AcDbDictionary
280
     1
281
     1
  3
ACAD_DIMASSOC
360
478
  0
DICTIONARY
  5
49B
330
48D
100
AcDbDictionary
280
     1
281
     1
  3
ACAD_DIMASSOC
360
4A6
  0
DICTIONARY
  5
4E4
330
4D6
100
AcDbDictionary
280
     1
281
     1
  3
ACAD_DIMASSOC
360
4EF
  0
DICTIONARY
  5
508
330
4FA
100
AcDbDictionary
280
     1
281
     1
  3
ACAD_DIMASSOC
360
513
  0
DICTIONARY
  5
522
330
514
100
AcDbDictionary
280
     1
281
     1
  3
ACAD_DIMASSOC
360
52D
  0
DICTIONARY
  5
546
330
538
100
AcDbDictionary
280
     1
281
     1
  3
ACAD_DIMASSOC
360
551
  0
DICTIONARY
  5
560
330
552
100
AcDbDictionary
280
     1
281
     1
  3
ACAD_DIMASSOC
360
56B
  0
DICTIONARY
  5
58E
330
580
100
AcDbDictionary
280
     1
281
     1
  3
ACAD_DIMASSOC
360
599
  0
DICTIONARY
  5
73
102
{ACAD_REACTORS
330
C
102
}
330
C
100
AcDbDictionary
281
     1
  0
DICTIONARY
  5
D
102
{ACAD_REACTORS
330
C
102
}
330
C
100
AcDbDictionary
281
     1
  0
DICTIONARY
  5
1A
102
{ACAD_REACTORS
330
C
102
}
330
C
100
AcDbDictionary
281
     1
  3
Layout1
350
59
  3
Layout2
350
5E
  3
Model
350
22
  0
DICTIONARY
  5
72
102
{ACAD_REACTORS
330
C
102
}
330
C
100
AcDbDictionary
281
     1
  3
ByBlock
350
97
  3
ByLayer
350
96
  3
Global
350
98
  0
DICTIONARY
  5
17
102
{ACAD_REACTORS
330
C
102
}
330
C
100
AcDbDictionary
281
     1
  3
Standard
350
18
  0
DICTIONARY
  5
19
102
{ACAD_REACTORS
330
C
102
}
330
C
100
AcDbDictionary
281
     1
  0
ACDBDICTIONARYWDFLT
  5
E
102
{ACAD_REACTORS
330
C
102
}
330
C
100
AcDbDictionary
281
     1
  3
Normal
350
F
100
AcDbDictionaryWithDefault
340
F
  0
DICTIONARY
  5
86
102
{ACAD_REACTORS
330
C
102
}
330
C
100
AcDbDictionary
281
     1
  3
Standard
350
87
  0
DICTIONARY
  5
99
102
{ACAD_REACTORS
330
C
102
}
330
C
100
AcDbDictionary
281
     1
  3
2dWireframe
350
9F
  3
3D Hidden
350
A1
  3
3dWireframe
350
A0
  3
Basic
350
9E
  3
Brighten
350
A5
  3
ColorChange
350
A9
  3
Conceptual
350
A2
  3
Dim
350
A4
  3
Facepattern
350
A8
  3
Flat
350
9A
  3
FlatWithEdges
350
9B
  3
Gouraud
350
9C
  3
GouraudWithEdges
350
9D
  3
Linepattern
350
A7
  3
Realistic
350
A3
  3
Thicken
350
A6
  0
XRECORD
  5
45C
102
{ACAD_REACTORS
330
C
102
}
330
C
100
AcDbXrecord
280
     1
 90
   990106
  3

 60
     0
 61
     0
 62
     1
 63
     3
 64
     0
 65
     0
 66
     0
 67
     3
 68
     1
 69
     0
 70
     0
 71
     0
 72
     0
 40
0.0
170
     0
  0
DICTIONARY
  5
66
102
{ACAD_REACTORS
330
C
102
}
330
C
100
AcDbDictionary
281
     1
  3
CTABLESTYLE
350
89
  3
DIMASSOC
350
67
  3
HIDETEXT
350
6B
  0
DICTIONARY
  5
147
102
{ACAD_REACTORS
330
132
102
}
330
132
100
AcDbDictionary
281
     1
  0
DICTIONARY
  5
146
102
{ACAD_REACTORS
330
132
102
}
330
132
100
AcDbDictionary
281
     1
1001
ACAD
1000
<All
  0
SORTENTSTABLE
  5
4D5
102
{ACAD_REACTORS
330
4D4
102
}
330
4D4
100
AcDbSortentsTable
330
1F
331
111
  5
111
331
13C
  5
13C
331
122
  5
122
331
100
  5
100
331
4D0
  5
4D0
331
45F
  5
45F
331
43D
  5
43D
331
13A
  5
13A
331
120
  5
120
331
10F
  5
10F
331
45D
  5
45D
331
43B
  5
43B
331
1EB
  5
1EB
331
138
  5
138
331
11E
  5
11E
331
DA
  5
DA
331
10D
  5
10D
331
C9
  5
C9
331
439
  5
439
331
297
  5
297
331
1C7
  5
1C7
331
1E9
  5
1E9
331
136
  5
136
331
11C
  5
11C
331
10B
  5
10B
331
D8
  5
D8
331
1E7
  5
1E7
331
404
  5
404
331
395
  5
395
331
11A
  5
11A
331
109
  5
109
331
C5
  5
C5
331
1E5
  5
1E5
331
393
  5
393
331
221
  5
221
331
118
  5
118
331
143
  5
143
331
107
  5
107
331
D4
  5
D4
331
205
  5
205
331
1E3
  5
1E3
331
391
  5
391
331
21F
  5
21F
331
116
  5
116
331
141
  5
141
331
105
  5
105
331
D2
  5
D2
331
2B1
  5
2B1
331
114
  5
114
331
13F
  5
13F
331
125
  5
125
331
103
  5
103
331
41E
  5
41E
331
3AF
  5
3AF
331
13D
  5
13D
331
123
  5
123
331
101
  5
101
331
DF
  5
DF
331
4D1
  5
4D1
331
12A
  5
12A
331
48D
  5
48D
331
13B
  5
13B
331
121
  5
121
331
45E
  5
45E
331
43C
  5
43C
331
128
  5
128
331
139
  5
139
331
11F
  5
11F
331
4CF
  5
4CF
331
10E
  5
10E
331
DB
  5
DB
331
B9
  5
B9
331
43A
  5
43A
331
148
  5
148
331
1EA
  5
1EA
331
137
  5
137
331
11D
  5
11D
331
237
  5
237
331
10C
  5
10C
331
D9
  5
D9
331
438
  5
438
331
1E8
  5
1E8
331
135
  5
135
331
11B
  5
11B
331
10A
  5
10A
331
1E6
  5
1E6
331
394
  5
394
331
119
  5
119
331
144
  5
144
331
108
  5
108
331
D5
  5
D5
331
1E4
  5
1E4
331
220
  5
220
331
117
  5
117
331
142
  5
142
331
106
  5
106
331
D3
  5
D3
331
390
  5
390
331
115
  5
115
331
251
  5
251
331
140
  5
140
331
126
  5
126
331
104
  5
104
331
113
  5
113
331
13E
  5
13E
331
124
  5
124
331
102
  5
102
331
E0
  5
E0
  0
DIMASSOC
  5
1E0
102
{ACAD_REACTORS
330
1D5
102
}
330
1D5
100
AcDbDimAssoc
330
1C7
 90
        3
 70
     0
 71
     0
  1
AcDbOsnapPointRef
 72
    11
331
B9
 73
     2
 91
        0
 40
0.0
 10
0.0
 20
0.0
 30
0.0
332
B9
 74
     2
 92
        0
 75
     0
  1
AcDbOsnapPointRef
 72
     8
331
B9
 73
     2
 91
        5
 40
1.0
 10
0.0
 20
0.0
 30
0.0
 75
     1
  1
AcDbOsnapPointRef
 72
    11
331
B9
 73
     2
 91
        0
 40
0.0
 10
0.0
 20
0.0
 30
0.0
332
B9
 74
     2
 92
        0
 75
     0
  0
DIMASSOC
  5
204
102
{ACAD_REACTORS
330
1F9
102
}
330
1F9
100
AcDbDimAssoc
330
1EB
 90
        3
 70
     0
 71
     0
  1
AcDbOsnapPointRef
 72
     2
331
1E4
 73
     2
 91
        0
 40
0.5
 10
0.0
 20
0.0
 30
0.0
 75
     0
  1
AcDbOsnapPointRef
 72
     8
331
B9
 73
     2
 91
        7
 40
0.1621621621621621
 10
0.0
 20
0.0
 30
0.0
 75
     1
  1
AcDbOsnapPointRef
 72
     2
331
1E4
 73
     2
 91
        0
 40
0.5
 10
0.0
 20
0.0
 30
0.0
 75
     0
  0
DIMASSOC
  5
21E
102
{ACAD_REACTORS
330
213
102
}
330
213
100
AcDbDimAssoc
330
205
 90
        2
 70
     0
 71
     0
  1
AcDbOsnapPointRef
 72
     8
331
B9
 73
     2
 91
        5
 40
0.9045000000000001
 10
0.0
 20
0.0
 30
0.0
 75
     1
  1
AcDbOsnapPointRef
 72
     0
 40
0.0
 10
437.1531634433814
 20
198.6601526286736
 30
0.0
 75
     0
  0
DIMASSOC
  5
236
102
{ACAD_REACTORS
330
22D
102
}
330
22D
100
AcDbDimAssoc
330
221
 90
        2
 70
     0
 71
     0
  1
AcDbOsnapPointRef
 72
     3
331
B9
 73
     2
 91
        6
 40
0.0
 10
0.0
 20
0.0
 30
0.0
 75
     0
  0
DIMASSOC
  5
250
102
{ACAD_REACTORS
330
245
102
}
330
245
100
AcDbDimAssoc
330
237
 90
        3
 70
     0
 71
     0
  1
AcDbOsnapPointRef
 72
    11
331
126
 73
     2
 91
        0
 40
0.8489193663596537
 10
0.0
 20
0.0
 30
0.0
332
B9
 74
     2
 92
        0
 75
     0
  1
AcDbOsnapPointRef
 72
     3
331
DB
 73
     2
 91
        0
 40
0.0
 10
0.0
 20
0.0
 30
0.0
 75
     0
  0
DIMASSOC
  5
26C
102
{ACAD_REACTORS
330
260
102
}
330
260
100
AcDbDimAssoc
330
251
 90
        2
 70
     0
 71
     0
  1
AcDbOsnapPointRef
 72
     8
331
B9
 73
     2
 91
        5
 40
0.5300000000000003
 10
0.0
 20
0.0
 30
0.0
 75
     1
  1
AcDbOsnapPointRef
 72
     0
 40
0.0
 10
624.4031634433814
 20
110.6601526286737
 30
0.0
 75
     0
  0
DIMASSOC
  5
2B0
102
{ACAD_REACTORS
330
2A5
102
}
330
2A5
100
AcDbDimAssoc
330
297
 90
        3
 70
     0
 71
     0
  1
AcDbOsnapPointRef
 72
     3
331
D2
 73
     2
 91
        0
 40
0.0
 10
0.0
 20
0.0
 30
0.0
 75
     0
  1
AcDbOsnapPointRef
 72
     8
331
B9
 73
     2
 91
        7
 40
0.5506756756756756
 10
0.0
 20
0.0
 30
0.0
 75
     1
  1
AcDbOsnapPointRef
 72
     3
331
D2
 73
     2
 91
        0
 40
0.0
 10
0.0
 20
0.0
 30
0.0
 75
     0
  0
DIMASSOC
  5
2CC
102
{ACAD_REACTORS
330
2C0
102
}
330
2C0
100
AcDbDimAssoc
330
2B1
 90
        2
 70
     0
 71
     0
  1
AcDbOsnapPointRef
 72
     2
331
B9
 73
     2
 91
        7
 40
0.5
 10
0.0
 20
0.0
 30
0.0
 75
     0
  0
DIMASSOC
  5
3AE
102
{ACAD_REACTORS
330
3A3
102
}
330
3A3
100
AcDbDimAssoc
330
395
 90
        3
 70
     0
 71
     0
  1
AcDbOsnapPointRef
 72
     2
331
1E8
 73
     2
 91
        0
 40
0.5
 10
0.0
 20
0.0
 30
0.0
 75
     0
  1
AcDbOsnapPointRef
 72
     2
331
1E6
 73
     2
 91
        0
 40
0.5
 10
0.0
 20
0.0
 30
0.0
 75
     0
  0
DIMASSOC
  5
3C8
102
{ACAD_REACTORS
330
3BD
102
}
330
3BD
100
AcDbDimAssoc
330
3AF
 90
        2
 70
     0
 71
     0
  1
AcDbOsnapPointRef
 72
    10
331
126
 73
     2
 91
        0
 40
0.2756855854487234
 10
0.0
 20
0.0
 30
0.0
 75
     0
  0
DIMASSOC
  5
41D
102
{ACAD_REACTORS
330
412
102
}
330
412
100
AcDbDimAssoc
330
404
 90
        3
 70
     0
 71
     0
  1
AcDbOsnapPointRef
 72
    10
331
B9
 73
     2
 91
        3
 40
0.9777546605463101
 10
0.0
 20
0.0
 30
0.0
 75
     0
  1
AcDbOsnapPointRef
 72
     5
331
C5
 73
     2
 91
        0
 40
4.712388980384689
 10
0.0
 20
0.0
 30
0.0
 75
     0
  0
DIMASSOC
  5
437
102
{ACAD_REACTORS
330
42C
102
}
330
42C
100
AcDbDimAssoc
330
41E
 90
        3
 70
     0
 71
     0
  1
AcDbOsnapPointRef
 72
     3
331
C5
 73
     2
 91
        0
 40
0.0
 10
0.0
 20
0.0
 30
0.0
 75
     0
  1
AcDbOsnapPointRef
 72
     1
331
B9
 73
     2
 91
        4
 40
4.712388980384689
 10
0.0
 20
0.0
 30
2.000000000000000E+50
 75
     0
  0
DIMASSOC
  5
478
102
{ACAD_REACTORS
330
46D
102
}
330
46D
100
AcDbDimAssoc
330
45F
 90
        3
 70
     0
 71
     0
  1
AcDbOsnapPointRef
 72
    11
331
125
 73
     2
 91
        0
 40
1.000000000000001
 10
0.0
 20
0.0
 30
0.0
332
125
 74
     2
 92
        0
 75
     0
  1
AcDbOsnapPointRef
 72
     1
331
125
 73
     2
 91
        4
 40
4.712388980384689
 10
0.0
 20
0.0
 30
2.000000000000000E+50
 75
     0
  0
DIMASSOC
  5
4A6
102
{ACAD_REACTORS
330
49B
102
}
330
49B
100
AcDbDimAssoc
330
48D
 90
        3
 70
     0
 71
     0
  1
AcDbOsnapPointRef
 72
    11
331
125
 73
     2
 91
        0
 40
2.0
 10
0.0
 20
0.0
 30
0.0
332
125
 74
     2
 92
        0
 75
     0
  1
AcDbOsnapPointRef
 72
     1
331
125
 73
     2
 91
        7
 40
1.0
 10
0.0
 20
0.0
 30
2.000000000000000E+50
 75
     0
  0
DIMASSOC
  5
4EF
102
{ACAD_REACTORS
330
4E4
102
}
330
4E4
100
AcDbDimAssoc
330
4D6
 90
        3
 70
     0
 71
     0
  1
AcDbOsnapPointRef
 72
    11
331
125
 73
     2
 91
        0
 40
3.0
 10
0.0
 20
0.0
 30
0.0
332
125
 74
     2
 92
        0
 75
     0
  1
AcDbOsnapPointRef
 72
    10
331
126
 73
     2
 91
        0
 40
0.4298660119328594
 10
0.0
 20
0.0
 30
0.0
 75
     0
  0
DIMASSOC
  5
513
102
{ACAD_REACTORS
330
508
102
}
330
508
100
AcDbDimAssoc
330
4FA
 90
        3
 70
     0
 71
     0
  1
AcDbOsnapPointRef
 72
    10
331
125
 73
     2
 91
        5
 40
0.5884042707318593
 10
0.0
 20
0.0
 30
0.0
 75
     0
  1
AcDbOsnapPointRef
 72
     2
331
128
 73
     2
 91
        0
 40
0.5
 10
0.0
 20
0.0
 30
0.0
 75
     0
  0
DIMASSOC
  5
52D
102
{ACAD_REACTORS
330
522
102
}
330
522
100
AcDbDimAssoc
330
514
 90
        3
 70
     0
 71
     0
  1
AcDbOsnapPointRef
 72
    13
331
12A
 73
     2
 91
        2
 40
1.570796326794896
 10
0.0
 20
0.0
 30
2.000000000000000E+50
 75
     0
  1
AcDbOsnapPointRef
 72
     1
331
12A
 73
     2
 91
        4
 40
4.712388980384689
 10
0.0
 20
0.0
 30
2.000000000000000E+50
 75
     0
  0
DIMASSOC
  5
551
102
{ACAD_REACTORS
330
546
102
}
330
546
100
AcDbDimAssoc
330
538
 90
        3
 70
     0
 71
     0
  1
AcDbOsnapPointRef
 72
     1
331
12A
 73
     2
 91
        3
 40
1.0
 10
0.0
 20
0.0
 30
2.000000000000000E+50
 75
     0
  1
AcDbOsnapPointRef
 72
     1
331
12A
 73
     2
 91
        6
 40
3.141592653589793
 10
0.0
 20
0.0
 30
2.000000000000000E+50
 75
     0
  0
DIMASSOC
  5
56B
102
{ACAD_REACTORS
330
560
102
}
330
560
100
AcDbDimAssoc
330
552
 90
        3
 70
     0
 71
     0
  1
AcDbOsnapPointRef
 72
    11
331
12A
 73
     2
 91
        0
 40
2.0
 10
0.0
 20
0.0
 30
0.0
332
12A
 74
     2
 92
        0
 75
     0
  1
AcDbOsnapPointRef
 72
    11
331
12A
 73
     2
 91
        0
 40
0.9156626506024096
 10
0.0
 20
0.0
 30
0.0
332
126
 74
     2
 92
        0
 75
     0
  0
DIMASSOC
  5
599
102
{ACAD_REACTORS
330
58E
102
}
330
58E
100
AcDbDimAssoc
330
580
 90
        2
 70
     0
 71
     0
  1
AcDbOsnapPointRef
 72
    10
331
111
 73
     2
 91
        0
 40
0.4669957636428591
 10
0.0
 20
0.0
 30
0.0
 75
     0
  0
LAYOUT
  5
59
102
{ACAD_REACTORS
330
1A
102
}
330
1A
100
AcDbPlotSettings
  1

  2
None
  4

  6

 40
0.0
 41
0.0
 42
0.0
 43
0.0
 44
0.0
 45
0.0
 46
0.0
 47
0.0
 48
0.0
 49
0.0
140
0.0
141
0.0
142
1.0
143
1.0
 70
   688
 72
     0
 73
     0
 74
     5
  7

 75
    16
147
1.0
 76
     0
 77
     2
 78
   300
148
0.0
149
0.0
100
AcDbLayout
  1
Layout1
 70
     1
 71
     1
 10
0.0
 20
0.0
 11
12.0
 21
9.0
 12
0.0
 22
0.0
 32
0.0
 14
0.0
 24
0.0
 34
0.0
 15
0.0
 25
0.0
 35
0.0
146
0.0
 13
0.0
 23
0.0
 33
0.0
 16
1.0
 26
0.0
 36
0.0
 17
0.0
 27
1.0
 37
0.0
 76
     0
330
58
  0
LAYOUT
  5
5E
102
{ACAD_REACTORS
330
1A
102
}
330
1A
100
AcDbPlotSettings
  1

  2
None
  4

  6

 40
0.0
 41
0.0
 42
0.0
 43
0.0
 44
0.0
 45
0.0
 46
0.0
 47
0.0
 48
0.0
 49
0.0
140
0.0
141
0.0
142
1.0
143
1.0
 70
   688
 72
     0
 73
     0
 74
     5
  7

 75
    16
147
1.0
 76
     0
 77
     2
 78
   300
148
0.0
149
0.0
100
AcDbLayout
  1
Layout2
 70
     1
 71
     2
 10
0.0
 20
0.0
 11
12.0
 21
9.0
 12
0.0
 22
0.0
 32
0.0
 14
0.0
 24
0.0
 34
0.0
 15
0.0
 25
0.0
 35
0.0
146
0.0
 13
0.0
 23
0.0
 33
0.0
 16
1.0
 26
0.0
 36
0.0
 17
0.0
 27
1.0
 37
0.0
 76
     0
330
5D
  0
LAYOUT
  5
22
102
{ACAD_REACTORS
330
1A
102
}
330
1A
100
AcDbPlotSettings
  1

  2
none_device
  4
ANSI_A_(8.50_x_11.00_Inches)
  6

 40
6.349999904632568
 41
19.04999923706055
 42
6.350006103515625
 43
19.04998779296875
 44
215.8999938964844
 45
279.3999938964844
 46
0.0
 47
0.0
 48
0.0
 49
0.0
140
0.0
141
0.0
142
1.0
143
2.584895464708373
 70
 11952
 72
     0
 73
     1
 74
     0
  7

 75
     0
147
0.3868628397755418
 76
     0
 77
     2
 78
   300
148
0.0
149
0.0
100
AcDbLayout
  1
Model
 70
     1
 71
     0
 10
0.0
 20
0.0
 11
12.0
 21
9.0
 12
0.0
 22
0.0
 32
0.0
 14
0.0
 24
0.0
 34
0.0
 15
0.0
 25
0.0
 35
0.0
146
0.0
 13
0.0
 23
0.0
 33
0.0
 16
1.0
 26
0.0
 36
0.0
 17
0.0
 27
1.0
 37
0.0
 76
     0
330
1F
331
94
  0
MATERIAL
  5
97
102
{ACAD_REACTORS
330
72
102
}
330
72
100
AcDbMaterial
  1
ByBlock
  0
MATERIAL
  5
96
102
{ACAD_REACTORS
330
72
102
}
330
72
100
AcDbMaterial
  1
ByLayer
  0
MATERIAL
  5
98
102
{ACAD_REACTORS
330
72
102
}
330
72
100
AcDbMaterial
  1
Global
  0
MLINESTYLE
  5
18
102
{ACAD_REACTORS
330
17
102
}
330
17
100
AcDbMlineStyle
  2
STANDARD
 70
     0
  3

 62
   256
 51
90.0
 52
90.0
 71
     2
 49
0.5
 62
   256
  6
BYLAYER
 49
-0.5
 62
   256
  6
BYLAYER
  0
ACDBPLACEHOLDER
  5
F
102
{ACAD_REACTORS
330
E
102
}
330
E
  0
TABLESTYLE
  5
87
102
{ACAD_REACTORS
330
86
102
}
330
86
100
AcDbTableStyle
  3
Standard
 70
     0
 71
     0
 40
0.06
 41
0.06
280
     0
281
     0
  7
Standard
140
0.18
170
     2
 62
     0
 63
     7
283
     0
 90
      512
 91
        0
  1

274
    -2
284
     1
 64
     0
275
    -2
285
     1
 65
     0
276
    -2
286
     1
 66
     0
277
    -2
287
     1
 67
     0
278
    -2
288
     1
 68
     0
279
    -2
289
     1
 69
     0
  7
Standard
140
0.25
170
     5
 62
     0
 63
     7
283
     0
 90
      512
 91
        0
  1

274
    -2
284
     1
 64
     0
275
    -2
285
     1
 65
     0
276
    -2
286
     1
 66
     0
277
    -2
287
     1
 67
     0
278
    -2
288
     1
 68
     0
279
    -2
289
     1
 69
     0
  7
Standard
140
0.18
170
     5
 62
     0
 63
     7
283
     0
 90
      512
 91
        0
  1

274
    -2
284
     1
 64
     0
275
    -2
285
     1
 65
     0
276
    -2
286
     1
 66
     0
277
    -2
287
     1
 67
     0
278
    -2
288
     1
 68
     0
279
    -2
289
     1
 69
     0
  0
VISUALSTYLE
  5
9F
102
{ACAD_REACTORS
330
99
102
}
330
99
100
AcDbVisualStyle
  2
2dWireframe
 70
     4
 71
     0
 72
     2
 73
     1
 90
        0
 40
-0.6
 41
-30.0
 62
     5
 63
     7
421
 16777215
 74
     1
 91
        4
 64
     7
 65
   257
 75
     1
175
     1
 42
1.0
 92
        0
 66
   257
 43
1.0
 76
     1
 77
     6
 78
     2
 67
     7
 79
     5
170
     0
171
     0
290
     0
174
     0
 93
        1
 44
0.0
173
     0
291
     0
 45
0.0
  0
VISUALSTYLE
  5
A1
102
{ACAD_REACTORS
330
99
102
}
330
99
100
AcDbVisualStyle
  2
3D Hidden
 70
     6
 71
     1
 72
     2
 73
     2
 90
        0
 40
-0.6
 41
-30.0
 62
     5
 63
     7
421
 16777215
 74
     2
 91
        2
 64
     7
 65
   257
 75
     2
175
     1
 42
40.0
 92
        0
 66
   257
 43
1.0
 76
     1
 77
     6
 78
     2
 67
     7
 79
     3
170
     0
171
     0
290
     0
174
     0
 93
        1
 44
0.0
173
     0
291
     0
 45
0.0
  0
VISUALSTYLE
  5
A0
102
{ACAD_REACTORS
330
99
102
}
330
99
100
AcDbVisualStyle
  2
3dWireframe
 70
     5
 71
     0
 72
     2
 73
     1
 90
        0
 40
-0.6
 41
-30.0
 62
     5
 63
     7
421
 16777215
 74
     1
 91
        4
 64
     7
 65
   257
 75
     1
175
     1
 42
1.0
 92
        0
 66
   257
 43
1.0
 76
     1
 77
     6
 78
     2
 67
     7
 79
     5
170
     0
171
     0
290
     0
174
     0
 93
        1
 44
0.0
173
     0
291
     0
 45
0.0
  0
VISUALSTYLE
  5
9E
102
{ACAD_REACTORS
330
99
102
}
330
99
100
AcDbVisualStyle
  2
Basic
 70
     7
 71
     1
 72
     0
 73
     1
 90
        0
 40
-0.6
 41
-30.0
 62
     5
 63
     7
421
 16777215
 74
     0
 91
        4
 64
     7
 65
   257
 75
     1
175
     1
 42
1.0
 92
        8
 66
     7
 43
1.0
 76
     1
 77
     6
 78
     2
 67
     7
 79
     5
170
     0
171
     0
290
     0
174
     0
 93
        1
 44
0.0
173
     0
291
     1
 45
0.0
  0
VISUALSTYLE
  5
A5
102
{ACAD_REACTORS
330
99
102
}
330
99
100
AcDbVisualStyle
  2
Brighten
 70
    12
 71
     2
 72
     2
 73
     1
 90
        0
 40
-0.6
 41
-30.0
 62
     5
 63
     7
421
 16777215
 74
     1
 91
        4
 64
     7
 65
   257
 75
     1
175
     1
 42
1.0
 92
        8
 66
     7
 43
1.0
 76
     1
 77
     6
 78
     2
 67
     7
 79
     5
170
     0
171
     0
290
     0
174
     0
 93
        1
 44
50.0
173
     0
291
     1
 45
0.0
  0
VISUALSTYLE
  5
A9
102
{ACAD_REACTORS
330
99
102
}
330
99
100
AcDbVisualStyle
  2
ColorChange
 70
    16
 71
     2
 72
     2
 73
     3
 90
        0
 40
-0.6
 41
-30.0
 62
     5
 63
     8
421
  8421504
 74
     1
 91
        4
 64
     7
 65
   257
 75
     1
175
     1
 42
1.0
 92
        8
 66
     8
424
  8421504
 43
1.0
 76
     1
 77
     6
 78
     2
 67
     7
 79
     5
170
     0
171
     0
290
     0
174
     0
 93
        1
 44
0.0
173
     0
291
     1
 45
0.0
  0
VISUALSTYLE
  5
A2
102
{ACAD_REACTORS
330
99
102
}
330
99
100
AcDbVisualStyle
  2
Conceptual
 70
     9
 71
     3
 72
     2
 73
     1
 90
        0
 40
-0.6
 41
-30.0
 62
     5
 63
     7
421
 16777215
 74
     2
 91
        2
 64
     7
 65
   257
 75
     1
175
     1
 42
40.0
 92
        8
 66
     7
 43
1.0
 76
     1
 77
     6
 78
     2
 67
     7
 79
     3
170
     0
171
     0
290
     0
174
     0
 93
        1
 44
0.0
173
     0
291
     0
 45
0.0
  0
VISUALSTYLE
  5
A4
102
{ACAD_REACTORS
330
99
102
}
330
99
100
AcDbVisualStyle
  2
Dim
 70
    11
 71
     2
 72
     2
 73
     1
 90
        0
 40
-0.6
 41
-30.0
 62
     5
 63
     7
421
 16777215
 74
     1
 91
        4
 64
     7
 65
   257
 75
     1
175
     1
 42
1.0
 92
        8
 66
     7
 43
1.0
 76
     1
 77
     6
 78
     2
 67
     7
 79
     5
170
     0
171
     0
290
     0
174
     0
 93
        1
 44
-50.0
173
     0
291
     1
 45
0.0
  0
VISUALSTYLE
  5
A8
102
{ACAD_REACTORS
330
99
102
}
330
99
100
AcDbVisualStyle
  2
Facepattern
 70
    15
 71
     2
 72
     2
 73
     1
 90
        0
 40
-0.6
 41
-30.0
 62
     5
 63
     7
421
 16777215
 74
     1
 91
        4
 64
     7
 65
   257
 75
     1
175
     1
 42
1.0
 92
        8
 66
     7
 43
1.0
 76
     1
 77
     6
 78
     2
 67
     7
 79
     5
170
     0
171
     0
290
     0
174
     0
 93
        1
 44
0.0
173
     0
291
     1
 45
0.0
  0
VISUALSTYLE
  5
9A
102
{ACAD_REACTORS
330
99
102
}
330
99
100
AcDbVisualStyle
  2
Flat
 70
     0
 71
     2
 72
     1
 73
     1
 90
        2
 40
-0.6
 41
30.0
 62
     5
 63
     7
421
 16777215
 74
     0
 91
        4
 64
     7
 65
   257
 75
     1
175
     1
 42
1.0
 92
        8
 66
     7
 43
1.0
 76
     1
 77
     6
 78
     2
 67
     7
 79
     5
170
     0
171
     0
290
     0
174
     0
 93
        1
 44
0.0
173
     0
291
     1
 45
0.0
  0
VISUALSTYLE
  5
9B
102
{ACAD_REACTORS
330
99
102
}
330
99
100
AcDbVisualStyle
  2
FlatWithEdges
 70
     1
 71
     2
 72
     1
 73
     1
 90
        2
 40
-0.6
 41
30.0
 62
     5
 63
     7
421
 16777215
 74
     1
 91
        4
 64
     7
 65
   257
 75
     1
175
     1
 42
1.0
 92
        0
 66
   257
 43
1.0
 76
     1
 77
     6
 78
     2
 67
     7
 79
     5
170
     0
171
     0
290
     0
174
     0
 93
        1
 44
0.0
173
     0
291
     1
 45
0.0
  0
VISUALSTYLE
  5
9C
102
{ACAD_REACTORS
330
99
102
}
330
99
100
AcDbVisualStyle
  2
Gouraud
 70
     2
 71
     2
 72
     2
 73
     1
 90
        2
 40
-0.6
 41
30.0
 62
     5
 63
     7
421
 16777215
 74
     0
 91
        4
 64
     7
 65
   257
 75
     1
175
     1
 42
1.0
 92
        0
 66
     7
 43
1.0
 76
     1
 77
     6
 78
     2
 67
     7
 79
     5
170
     0
171
     0
290
     0
174
     0
 93
        1
 44
0.0
173
     0
291
     1
 45
0.0
  0
VISUALSTYLE
  5
9D
102
{ACAD_REACTORS
330
99
102
}
330
99
100
AcDbVisualStyle
  2
GouraudWithEdges
 70
     3
 71
     2
 72
     2
 73
     1
 90
        2
 40
-0.6
 41
30.0
 62
     5
 63
     7
421
 16777215
 74
     1
 91
        4
 64
     7
 65
   257
 75
     1
175
     1
 42
1.0
 92
        0
 66
   257
 43
1.0
 76
     1
 77
     6
 78
     2
 67
     7
 79
     5
170
     0
171
     0
290
     0
174
     0
 93
        1
 44
0.0
173
     0
291
     1
 45
0.0
  0
VISUALSTYLE
  5
A7
102
{ACAD_REACTORS
330
99
102
}
330
99
100
AcDbVisualStyle
  2
Linepattern
 70
    14
 71
     2
 72
     2
 73
     1
 90
        0
 40
-0.6
 41
-30.0
 62
     5
 63
     7
421
 16777215
 74
     1
 91
        4
 64
     7
 65
   257
 75
     7
175
     7
 42
1.0
 92
        8
 66
     7
 43
1.0
 76
     1
 77
     6
 78
     2
 67
     7
 79
     5
170
     0
171
     0
290
     0
174
     0
 93
        1
 44
0.0
173
     0
291
     1
 45
0.0
  0
VISUALSTYLE
  5
A3
102
{ACAD_REACTORS
330
99
102
}
330
99
100
AcDbVisualStyle
  2
Realistic
 70
     8
 71
     2
 72
     2
 73
     1
 90
        0
 40
-0.6
 41
-30.0
 62
     5
 63
     7
421
 16777215
 74
     1
 91
        0
 64
     7
 65
   257
 75
     1
175
     1
 42
1.0
 92
        8
 66
     8
424
  7895160
 43
1.0
 76
     1
 77
     6
 78
     2
 67
     7
 79
     5
170
     0
171
     0
290
     0
174
     0
 93
       13
 44
0.0
173
     0
291
     0
 45
0.0
  0
VISUALSTYLE
  5
A6
102
{ACAD_REACTORS
330
99
102
}
330
99
100
AcDbVisualStyle
  2
Thicken
 70
    13
 71
     2
 72
     2
 73
     1
 90
        0
 40
-0.6
 41
-30.0
 62
     5
 63
     7
421
 16777215
 74
     1
 91
        4
 64
     7
 65
   257
 75
     1
175
     1
 42
1.0
 92
       12
 66
     7
 43
1.0
 76
     1
 77
     6
 78
     2
 67
     7
 79
     5
170
     0
171
     0
290
     0
174
     0
 93
        1
 44
0.0
173
     0
291
     1
 45
0.0
  0
DICTIONARYVAR
  5
89
102
{ACAD_REACTORS
330
66
102
}
330
66
100
DictionaryVariables
280
     0
  1
STANDARD
  0
DICTIONARYVAR
  5
67
102
{ACAD_REACTORS
330
66
102
}
330
66
100
DictionaryVariables
280
     0
  1
2
  0
DICTIONARYVAR
  5
6B
102
{ACAD_REACTORS
330
66
102
}
330
66
100
DictionaryVariables
280
     0
  1
1
  0
ENDSEC
  0
EOF
